<svg id="svg" version="1.1" width="400" height="398.6577181208053" xmlns="http://www.w3.org/2000/svg" xmlns:xlink="http://www.w3.org/1999/xlink" style="display: block;"><g id="svgg"><path id="path0" d="M122.210 1.383 C 121.197 2.149,122.025 2.159,123.484 1.398 C 124.439 0.900,124.492 0.802,123.805 0.800 C 123.353 0.799,122.636 1.061,122.210 1.383 M184.406 1.405 C 185.042 1.737,185.665 1.906,185.791 1.780 C 186.122 1.449,184.979 0.810,184.048 0.806 C 183.410 0.803,183.482 0.924,184.406 1.405 M116.530 2.473 C 116.267 2.736,116.052 3.129,116.052 3.346 C 116.052 3.564,116.276 3.453,116.550 3.101 C 116.825 2.748,117.408 2.376,117.846 2.273 C 118.627 2.091,118.627 2.086,117.827 2.040 C 117.377 2.015,116.794 2.209,116.530 2.473 M189.631 2.281 C 190.070 2.388,190.744 2.755,191.129 3.096 C 191.514 3.438,191.950 3.597,192.097 3.450 C 192.532 3.015,190.911 2.017,189.831 2.053 C 189.015 2.080,188.979 2.122,189.631 2.281 M195.414 3.740 C 195.414 3.823,195.683 4.114,196.012 4.387 C 196.502 4.793,196.610 4.766,196.610 4.236 C 196.610 3.880,196.341 3.589,196.012 3.589 C 195.683 3.589,195.414 3.657,195.414 3.740 M199.900 5.061 C 200.284 5.161,200.598 5.409,200.598 5.612 C 200.598 5.816,200.800 5.982,201.046 5.982 C 201.355 5.982,201.340 5.797,200.997 5.384 C 200.724 5.055,200.208 4.806,199.851 4.832 C 199.304 4.871,199.311 4.907,199.900 5.061 M203.315 6.267 C 203.821 6.364,204.334 6.698,204.454 7.010 C 204.703 7.658,205.783 7.787,205.783 7.169 C 205.783 6.688,204.031 5.958,203.065 6.036 C 202.678 6.068,202.784 6.165,203.315 6.267 M102.094 6.979 C 101.690 7.466,101.710 7.577,102.202 7.577 C 102.534 7.577,102.909 7.308,103.036 6.979 C 103.162 6.650,103.113 6.381,102.928 6.381 C 102.742 6.381,102.367 6.650,102.094 6.979 M95.490 9.359 C 95.064 9.681,94.895 9.945,95.115 9.945 C 95.334 9.945,95.862 9.681,96.288 9.359 C 96.713 9.037,96.882 8.774,96.663 8.774 C 96.444 8.774,95.916 9.037,95.490 9.359 M218.001 12.164 C 218.128 12.493,218.503 12.762,218.835 12.762 C 219.327 12.762,219.347 12.650,218.943 12.164 C 218.670 11.834,218.295 11.565,218.109 11.565 C 217.924 11.565,217.875 11.834,218.001 12.164 M86.318 13.327 C 85.893 13.638,85.664 14.012,85.810 14.158 C 85.956 14.304,86.449 14.050,86.906 13.593 C 87.852 12.647,87.479 12.479,86.318 13.327 M220.173 12.866 C 220.264 12.923,220.743 13.310,221.236 13.725 C 221.730 14.141,222.134 14.376,222.134 14.248 C 222.134 13.846,220.901 12.762,220.443 12.762 C 220.203 12.762,220.081 12.808,220.173 12.866 M83.217 14.623 C 82.758 15.082,82.927 15.553,83.549 15.553 C 83.878 15.553,84.148 15.284,84.148 14.955 C 84.148 14.332,83.676 14.164,83.217 14.623 M223.330 14.507 C 223.330 14.590,223.599 14.881,223.928 15.155 C 224.418 15.561,224.526 15.534,224.526 15.004 C 224.526 14.648,224.257 14.357,223.928 14.357 C 223.599 14.357,223.330 14.425,223.330 14.507 M80.060 16.417 C 79.237 16.862,78.567 17.433,78.570 17.686 C 78.575 18.026,78.654 18.024,78.874 17.679 C 79.037 17.422,79.649 17.092,80.234 16.945 C 80.819 16.798,81.395 16.425,81.514 16.116 C 81.633 15.806,81.690 15.565,81.643 15.580 C 81.595 15.595,80.882 15.971,80.060 16.417 M226.122 15.919 C 226.122 16.107,226.750 16.558,227.517 16.922 C 228.285 17.287,228.913 17.756,228.913 17.965 C 228.913 18.174,229.227 18.339,229.611 18.332 C 230.488 18.315,228.767 16.750,227.872 16.750 C 227.567 16.750,227.318 16.589,227.318 16.394 C 227.318 16.198,227.049 15.934,226.720 15.808 C 226.391 15.682,226.122 15.732,226.122 15.919 M73.524 20.140 C 73.398 20.469,73.072 20.738,72.801 20.738 C 72.529 20.738,71.982 21.097,71.585 21.535 C 71.188 21.974,71.051 22.333,71.281 22.333 C 71.511 22.333,71.803 22.064,71.929 21.735 C 72.055 21.406,72.405 21.137,72.707 21.137 C 73.009 21.137,73.581 20.778,73.978 20.339 C 74.408 19.863,74.509 19.541,74.227 19.541 C 73.967 19.541,73.650 19.811,73.524 20.140 M66.943 24.350 C 66.052 25.127,66.048 25.147,66.877 24.746 C 67.358 24.513,67.863 24.144,67.997 23.926 C 68.389 23.292,67.960 23.464,66.943 24.350 M240.476 24.525 C 241.218 25.072,241.968 25.745,242.143 26.020 C 242.340 26.331,242.463 26.353,242.466 26.080 C 242.474 25.570,240.121 23.529,239.527 23.529 C 239.307 23.529,239.734 23.977,240.476 24.525 M243.669 26.644 C 243.669 27.224,245.169 28.025,245.785 27.774 C 246.100 27.646,246.069 27.570,245.694 27.549 C 245.383 27.532,244.799 27.220,244.398 26.857 C 243.987 26.485,243.669 26.392,243.669 26.644 M250.050 31.609 C 250.818 32.320,251.517 32.731,251.605 32.523 C 251.693 32.314,251.575 32.080,251.343 32.003 C 251.111 31.926,250.518 31.513,250.026 31.086 C 248.534 29.792,248.554 30.223,250.050 31.609 M255.135 35.758 C 255.409 35.868,255.633 36.213,255.633 36.524 C 255.633 36.834,255.843 37.089,256.100 37.089 C 256.357 37.089,256.895 37.386,257.297 37.749 C 257.698 38.112,258.026 38.246,258.026 38.048 C 258.026 37.621,255.421 35.479,254.957 35.525 C 254.780 35.542,254.860 35.647,255.135 35.758 M47.447 39.875 C 45.808 41.407,44.332 42.663,44.167 42.666 C 44.003 42.669,43.868 42.941,43.868 43.270 C 43.868 43.599,43.697 43.868,43.488 43.868 C 42.986 43.868,40.972 45.891,41.223 46.142 C 41.330 46.249,42.387 45.377,43.572 44.205 C 44.756 43.033,46.733 41.131,47.964 39.979 C 50.036 38.041,50.892 37.089,50.561 37.089 C 50.488 37.089,49.086 38.342,47.447 39.875 M262.176 42.074 C 262.767 42.622,263.351 43.071,263.472 43.071 C 263.846 43.071,261.838 41.091,261.457 41.084 C 261.261 41.080,261.584 41.525,262.176 42.074 M264.407 44.005 C 264.407 44.127,264.855 44.710,265.404 45.302 C 265.952 45.894,266.398 46.217,266.394 46.020 C 266.387 45.640,264.407 43.632,264.407 44.005 M39.539 47.764 C 39.023 48.363,38.220 49.267,37.754 49.773 C 37.118 50.464,37.071 50.630,37.566 50.440 C 37.928 50.301,38.321 49.932,38.441 49.620 C 38.561 49.308,38.934 49.053,39.270 49.053 C 39.606 49.053,39.880 48.843,39.880 48.586 C 39.880 48.329,40.177 47.790,40.540 47.389 C 40.903 46.988,41.038 46.663,40.839 46.667 C 40.641 46.671,40.056 47.165,39.539 47.764 M267.079 47.199 C 267.608 48.095,269.364 50.062,269.966 50.434 C 270.276 50.625,270.005 50.124,269.363 49.319 C 268.721 48.515,268.061 47.856,267.896 47.856 C 267.732 47.856,267.597 47.587,267.597 47.258 C 267.597 46.929,267.409 46.660,267.179 46.660 C 266.935 46.660,266.894 46.886,267.079 47.199 M275.851 57.804 C 275.969 58.255,276.224 58.624,276.417 58.624 C 276.955 58.624,276.837 57.980,276.203 57.454 C 275.738 57.068,275.675 57.131,275.851 57.804 M278.815 61.515 C 279.147 61.790,279.734 62.523,280.120 63.145 C 280.506 63.767,280.926 64.172,281.053 64.045 C 281.180 63.918,280.987 63.484,280.622 63.082 C 280.258 62.679,279.960 62.159,279.960 61.926 C 279.960 61.692,279.676 61.392,279.329 61.259 C 278.343 60.880,278.159 60.972,278.815 61.515 M140.601 64.439 C 139.954 64.912,139.934 65.005,140.479 65.005 C 140.836 65.005,141.248 64.814,141.392 64.580 C 141.815 63.896,141.436 63.829,140.601 64.439 M165.902 64.217 C 165.902 64.445,166.179 64.737,166.518 64.867 C 167.453 65.226,167.563 64.839,166.682 64.289 C 166.188 63.981,165.902 63.954,165.902 64.217 M172.937 65.603 C 173.063 65.932,173.410 66.201,173.709 66.201 C 174.028 66.201,174.157 65.954,174.023 65.603 C 173.896 65.274,173.549 65.005,173.250 65.005 C 172.931 65.005,172.802 65.252,172.937 65.603 M24.227 67.186 C 23.274 68.498,23.344 68.930,24.327 67.797 C 24.766 67.291,25.125 66.725,25.125 66.539 C 25.125 66.037,24.995 66.131,24.227 67.186 M178.265 66.786 C 178.265 66.888,178.620 67.161,179.054 67.393 C 179.697 67.737,179.800 67.703,179.609 67.208 C 179.403 66.669,178.265 66.312,178.265 66.786 M282.951 67.398 C 283.348 67.836,283.741 68.195,283.825 68.195 C 283.908 68.195,283.784 67.836,283.549 67.398 C 283.315 66.959,282.922 66.600,282.676 66.600 C 282.430 66.600,282.554 66.959,282.951 67.398 M124.427 68.395 C 124.020 68.885,124.047 68.993,124.577 68.993 C 124.933 68.993,125.224 68.724,125.224 68.395 C 125.224 68.066,125.157 67.797,125.074 67.797 C 124.991 67.797,124.700 68.066,124.427 68.395 M186.241 69.487 C 186.241 69.826,186.536 70.217,186.897 70.356 C 187.879 70.732,187.940 70.407,187.041 69.593 C 186.365 68.981,186.241 68.965,186.241 69.487 M285.145 71.186 C 285.145 71.296,285.503 71.745,285.942 72.183 C 286.826 73.067,286.952 72.927,286.327 71.758 C 285.958 71.069,285.145 70.675,285.145 71.186 M20.855 72.483 C 20.714 72.866,20.361 73.324,20.070 73.499 C 19.779 73.675,19.541 74.017,19.541 74.259 C 19.541 74.502,19.900 74.375,20.339 73.978 C 20.778 73.581,21.137 73.028,21.137 72.749 C 21.137 72.470,21.451 72.160,21.834 72.060 C 22.489 71.889,22.488 71.874,21.822 71.831 C 21.431 71.805,20.996 72.099,20.855 72.483 M114.855 72.196 C 114.855 72.423,114.452 72.770,113.958 72.969 C 113.465 73.167,113.297 73.341,113.586 73.355 C 114.325 73.390,115.653 72.629,115.653 72.169 C 115.653 71.958,115.474 71.785,115.254 71.785 C 115.035 71.785,114.855 71.970,114.855 72.196 M192.235 72.035 C 192.216 72.744,193.311 73.464,194.098 73.260 C 194.673 73.110,194.642 73.064,193.938 73.027 C 193.455 73.002,192.878 72.667,192.654 72.283 C 192.431 71.899,192.242 71.788,192.235 72.035 M197.009 74.727 C 197.009 74.810,197.278 75.101,197.607 75.374 C 198.097 75.780,198.205 75.753,198.205 75.223 C 198.205 74.867,197.936 74.576,197.607 74.576 C 197.278 74.576,197.009 74.644,197.009 74.727 M199.402 76.139 C 199.402 76.542,200.953 77.550,201.192 77.301 C 201.261 77.228,200.887 76.846,200.360 76.452 C 199.833 76.058,199.402 75.917,199.402 76.139 M289.133 78.123 C 289.133 78.319,289.385 78.576,289.693 78.694 C 290.002 78.812,290.371 79.445,290.515 80.099 C 290.659 80.754,291.032 81.387,291.344 81.507 C 291.717 81.650,291.545 81.047,290.842 79.746 C 289.862 77.930,289.133 77.238,289.133 78.123 M207.271 81.755 C 207.647 82.193,208.124 82.552,208.332 82.552 C 208.541 82.552,209.039 82.849,209.440 83.212 C 210.091 83.801,210.169 83.804,210.169 83.244 C 210.169 82.874,209.691 82.511,209.006 82.360 C 208.367 82.220,207.744 81.847,207.623 81.531 C 207.502 81.215,207.220 80.957,206.995 80.957 C 206.771 80.957,206.895 81.316,207.271 81.755 M293.801 86.130 C 294.171 86.562,294.554 86.835,294.652 86.737 C 294.889 86.500,293.913 85.344,293.475 85.344 C 293.284 85.344,293.431 85.698,293.801 86.130 M13.424 86.470 C 12.467 87.527,12.608 87.890,13.593 86.906 C 14.050 86.449,14.348 85.999,14.255 85.906 C 14.162 85.814,13.788 86.067,13.424 86.470 M91.887 88.335 C 91.295 88.883,90.972 89.329,91.168 89.325 C 91.549 89.318,93.556 87.338,93.183 87.338 C 93.062 87.338,92.478 87.787,91.887 88.335 M294.716 88.437 C 294.716 88.656,294.985 89.059,295.314 89.332 C 295.648 89.609,295.912 89.652,295.912 89.430 C 295.912 89.210,295.643 88.807,295.314 88.534 C 294.980 88.257,294.716 88.214,294.716 88.437 M9.205 95.652 C 8.553 96.870,8.688 97.209,9.413 96.175 C 9.764 95.673,9.958 95.169,9.844 95.055 C 9.729 94.940,9.442 95.209,9.205 95.652 M224.265 98.037 C 224.628 98.439,224.925 98.937,224.925 99.145 C 224.925 99.353,225.284 99.831,225.723 100.207 C 226.162 100.582,226.520 100.785,226.520 100.657 C 226.520 100.529,226.162 99.969,225.723 99.411 C 225.284 98.853,224.925 98.152,224.925 97.852 C 224.925 97.553,224.628 97.308,224.265 97.308 C 223.651 97.308,223.651 97.359,224.265 98.037 M81.655 99.733 C 81.271 99.956,80.971 100.444,80.989 100.817 C 81.014 101.370,81.063 101.385,81.253 100.897 C 81.381 100.568,81.770 100.080,82.119 99.813 C 82.889 99.222,82.613 99.175,81.655 99.733 M299.900 102.293 C 299.900 102.622,300.164 102.891,300.486 102.891 C 300.843 102.891,300.982 102.658,300.842 102.293 C 300.716 101.964,300.452 101.695,300.256 101.695 C 300.061 101.695,299.900 101.964,299.900 102.293 M76.703 107.108 C 76.452 107.640,76.397 108.076,76.581 108.076 C 76.928 108.076,77.548 106.528,77.300 106.280 C 77.223 106.203,76.955 106.575,76.703 107.108 M4.088 111.155 C 3.814 111.253,3.589 111.625,3.589 111.983 C 3.589 112.575,3.650 112.573,4.263 111.959 C 4.984 111.238,4.903 110.864,4.088 111.155 M72.283 114.744 C 72.009 114.842,71.785 115.215,71.785 115.572 C 71.785 116.164,71.845 116.162,72.459 115.549 C 73.180 114.828,73.098 114.453,72.283 114.744 M304.384 116.351 C 304.724 116.735,305.090 117.408,305.197 117.846 C 305.364 118.535,305.397 118.545,305.437 117.920 C 305.497 116.978,304.781 115.653,304.211 115.653 C 303.947 115.653,304.018 115.938,304.384 116.351 M2.260 116.717 C 2.114 116.863,2.015 117.446,2.040 118.013 C 2.077 118.830,2.125 118.878,2.273 118.245 C 2.376 117.807,2.748 117.223,3.101 116.949 C 3.657 116.517,3.661 116.451,3.134 116.451 C 2.799 116.451,2.406 116.570,2.260 116.717 M70.987 117.846 C 70.705 118.186,70.564 118.554,70.674 118.663 C 70.784 118.773,71.104 118.585,71.386 118.245 C 71.668 117.906,71.809 117.538,71.699 117.428 C 71.589 117.319,71.269 117.507,70.987 117.846 M236.889 119.549 C 236.889 120.187,238.020 121.435,238.323 121.132 C 238.490 120.965,238.235 120.465,237.758 120.020 C 237.280 119.575,236.889 119.363,236.889 119.549 M306.020 122.619 C 306.273 123.160,306.542 123.424,306.618 123.204 C 306.813 122.637,306.376 121.635,305.932 121.635 C 305.723 121.635,305.762 122.069,306.020 122.619 M1.040 122.665 C 0.533 123.984,0.809 124.613,1.398 123.484 C 2.094 122.150,2.113 122.034,1.638 122.034 C 1.442 122.034,1.173 122.318,1.040 122.665 M66.999 128.614 C 66.717 128.954,66.576 129.321,66.686 129.431 C 66.796 129.541,67.116 129.353,67.398 129.013 C 67.680 128.673,67.821 128.306,67.711 128.196 C 67.601 128.086,67.281 128.275,66.999 128.614 M306.680 128.967 C 306.680 129.052,306.948 129.635,307.276 130.263 C 307.865 131.393,308.141 130.764,307.634 129.444 C 307.426 128.901,306.680 128.528,306.680 128.967 M66.201 132.507 C 66.201 133.076,65.919 133.824,65.575 134.169 C 65.021 134.723,65.019 134.796,65.557 134.796 C 66.180 134.796,66.932 132.202,66.449 131.720 C 66.313 131.584,66.201 131.938,66.201 132.507 M307.876 139.774 C 307.876 139.916,308.100 140.424,308.373 140.904 C 308.647 141.383,308.975 143.210,309.103 144.965 L 309.337 148.156 309.357 145.165 C 309.381 141.658,309.068 139.911,308.375 139.681 C 308.101 139.589,307.876 139.631,307.876 139.774 M64.278 141.430 C 63.989 141.744,63.824 142.219,63.913 142.485 C 64.006 142.766,64.282 142.579,64.572 142.039 C 65.163 140.934,65.016 140.629,64.278 141.430 M243.800 153.739 C 243.802 155.274,243.874 155.853,243.960 155.026 C 244.046 154.199,244.045 152.942,243.957 152.234 C 243.869 151.526,243.798 152.203,243.800 153.739 M309.151 161.515 C 309.098 163.953,308.855 165.712,308.472 166.446 C 307.723 167.882,307.721 168.123,308.464 167.506 C 309.285 166.825,309.538 165.056,309.375 161.117 L 309.235 157.727 309.151 161.515 M63.809 165.206 C 63.809 165.535,64.078 166.028,64.407 166.301 C 64.893 166.705,65.005 166.686,65.005 166.199 C 65.005 165.870,64.736 165.378,64.407 165.105 C 63.920 164.701,63.809 164.720,63.809 165.206 M65.575 173.309 C 65.919 173.653,66.226 174.416,66.256 175.004 C 66.302 175.913,66.335 175.941,66.480 175.195 C 66.671 174.209,65.991 172.682,65.361 172.682 C 65.134 172.682,65.230 172.964,65.575 173.309 M307.173 177.532 C 306.902 177.804,306.680 178.298,306.680 178.630 C 306.680 179.152,306.767 179.147,307.324 178.589 C 307.679 178.235,307.901 177.741,307.818 177.492 C 307.709 177.165,307.530 177.176,307.173 177.532 M67.080 179.045 C 67.630 179.926,68.018 179.816,67.659 178.881 C 67.529 178.542,67.236 178.265,67.008 178.265 C 66.746 178.265,66.772 178.551,67.080 179.045 M0.806 184.048 C 0.810 184.979,1.449 186.122,1.780 185.791 C 1.906 185.665,1.737 185.042,1.405 184.406 C 0.924 183.482,0.803 183.410,0.806 184.048 M306.327 184.068 C 306.302 184.517,306.066 185.101,305.803 185.364 C 305.430 185.736,305.433 185.842,305.815 185.842 C 306.434 185.842,306.805 184.913,306.561 183.971 C 306.399 183.349,306.367 183.362,306.327 184.068 M237.270 187.073 C 236.637 188.256,236.958 188.332,237.805 187.199 C 238.199 186.672,238.340 186.241,238.118 186.241 C 237.897 186.241,237.515 186.616,237.270 187.073 M2.104 190.225 C 2.162 190.865,2.477 191.268,2.991 191.358 C 3.713 191.484,3.727 191.446,3.137 190.963 C 2.778 190.669,2.379 190.160,2.250 189.831 C 2.121 189.501,2.055 189.679,2.104 190.225 M305.085 190.209 C 305.085 190.637,304.772 191.162,304.390 191.376 C 304.008 191.590,303.831 191.900,303.995 192.065 C 304.381 192.450,305.454 191.042,305.471 190.130 C 305.478 189.746,305.394 189.432,305.284 189.432 C 305.174 189.432,305.085 189.782,305.085 190.209 M71.785 191.788 C 71.785 191.974,72.054 192.349,72.383 192.622 C 72.870 193.026,72.981 193.006,72.981 192.514 C 72.981 192.182,72.712 191.807,72.383 191.680 C 72.054 191.554,71.785 191.603,71.785 191.788 M72.981 194.754 C 72.981 195.117,73.235 195.414,73.546 195.414 C 73.857 195.414,74.202 195.638,74.312 195.912 C 74.428 196.200,74.527 196.226,74.545 195.974 C 74.562 195.734,74.217 195.213,73.779 194.816 C 73.061 194.166,72.981 194.160,72.981 194.754 M76.271 199.833 C 76.655 200.056,76.969 200.529,76.969 200.884 C 76.969 201.239,77.075 201.423,77.205 201.293 C 77.652 200.846,76.914 199.402,76.244 199.414 C 75.632 199.425,75.635 199.462,76.271 199.833 M6.472 205.060 C 6.719 205.799,7.577 205.922,7.577 205.218 C 7.577 204.870,7.293 204.586,6.946 204.586 C 6.599 204.586,6.385 204.799,6.472 205.060 M299.900 205.218 C 299.900 205.565,300.113 205.778,300.374 205.691 C 301.113 205.445,301.236 204.586,300.532 204.586 C 300.184 204.586,299.900 204.870,299.900 205.218 M79.761 205.749 C 79.761 205.987,80.030 206.181,80.359 206.181 C 80.688 206.181,80.957 206.444,80.957 206.766 C 80.957 207.087,81.361 207.545,81.854 207.785 C 82.614 208.153,82.660 208.138,82.154 207.690 C 81.825 207.398,81.363 206.816,81.128 206.395 C 80.639 205.520,79.761 205.105,79.761 205.749 M224.925 208.244 C 224.925 208.501,224.628 209.039,224.265 209.440 C 223.728 210.033,223.712 210.169,224.178 210.169 C 224.493 210.169,224.954 209.631,225.202 208.973 C 225.450 208.315,225.490 207.777,225.289 207.777 C 225.089 207.777,224.925 207.987,224.925 208.244 M83.824 210.992 C 83.919 211.280,84.234 211.594,84.521 211.690 C 84.821 211.790,84.970 211.640,84.870 211.341 C 84.774 211.053,84.460 210.739,84.172 210.643 C 83.873 210.543,83.724 210.693,83.824 210.992 M8.774 211.466 C 8.774 211.824,8.965 212.235,9.199 212.379 C 9.883 212.802,9.950 212.423,9.339 211.588 C 8.866 210.941,8.774 210.921,8.774 211.466 M11.565 218.109 C 11.565 218.295,11.834 218.670,12.164 218.943 C 12.650 219.347,12.762 219.327,12.762 218.835 C 12.762 218.503,12.493 218.128,12.164 218.001 C 11.834 217.875,11.565 217.924,11.565 218.109 M91.002 218.392 C 91.373 218.503,91.766 218.896,91.877 219.267 C 92.023 219.755,92.055 219.722,91.996 219.147 C 91.949 218.682,91.587 218.320,91.122 218.273 C 90.547 218.214,90.514 218.247,91.002 218.392 M293.800 221.176 C 293.406 221.703,293.265 222.134,293.487 222.134 C 293.890 222.134,294.898 220.582,294.648 220.344 C 294.576 220.274,294.194 220.649,293.800 221.176 M13.161 221.336 C 13.395 221.775,13.788 222.134,14.034 222.134 C 14.280 222.134,14.156 221.775,13.759 221.336 C 13.362 220.897,12.969 220.538,12.885 220.538 C 12.802 220.538,12.926 220.897,13.161 221.336 M95.574 222.756 C 96.136 223.318,96.691 223.681,96.809 223.564 C 97.031 223.341,95.324 221.771,94.834 221.748 C 94.679 221.741,95.012 222.194,95.574 222.756 M14.357 223.837 C 14.357 224.169,14.626 224.544,14.955 224.671 C 15.284 224.797,15.553 224.748,15.553 224.563 C 15.553 224.377,15.284 224.002,14.955 223.729 C 14.468 223.325,14.357 223.345,14.357 223.837 M209.093 224.257 C 208.917 224.548,208.460 224.901,208.076 225.042 C 207.692 225.184,207.399 225.619,207.424 226.009 C 207.459 226.545,207.511 226.571,207.635 226.114 C 207.726 225.781,208.333 225.273,208.985 224.984 C 209.636 224.696,210.169 224.295,210.169 224.094 C 210.169 223.546,209.456 223.654,209.093 224.257 M290.948 226.896 C 290.563 227.322,290.341 227.905,290.456 228.192 C 290.592 228.531,290.676 228.470,290.696 228.016 C 290.714 227.632,290.888 227.318,291.084 227.318 C 291.280 227.318,291.543 227.049,291.670 226.720 C 291.976 225.921,291.790 225.966,290.948 226.896 M103.114 228.282 C 103.949 228.893,104.327 228.826,103.905 228.142 C 103.760 227.908,103.349 227.717,102.991 227.717 C 102.447 227.717,102.467 227.809,103.114 228.282 M197.265 232.303 C 196.936 232.632,196.485 232.901,196.263 232.901 C 196.041 232.901,195.759 233.064,195.636 233.263 C 195.231 233.919,196.943 233.236,197.643 232.463 C 198.452 231.568,198.134 231.434,197.265 232.303 M19.541 233.438 C 19.541 233.581,19.900 234.058,20.339 234.497 C 20.778 234.935,21.137 235.142,21.137 234.957 C 21.137 234.772,20.778 234.295,20.339 233.898 C 19.900 233.501,19.541 233.294,19.541 233.438 M112.064 233.898 C 112.064 234.227,112.355 234.497,112.711 234.497 C 113.241 234.497,113.268 234.388,112.861 233.898 C 112.588 233.569,112.297 233.300,112.214 233.300 C 112.132 233.300,112.064 233.569,112.064 233.898 M114.855 235.095 C 115.128 235.424,115.531 235.693,115.751 235.693 C 115.973 235.693,115.930 235.428,115.653 235.095 C 115.380 234.766,114.977 234.497,114.758 234.497 C 114.535 234.497,114.578 234.761,114.855 235.095 M186.939 237.164 C 186.555 237.265,186.241 237.519,186.241 237.730 C 186.241 237.966,186.509 237.976,186.939 237.755 C 187.323 237.557,187.906 237.296,188.235 237.174 C 189.008 236.888,188.027 236.880,186.939 237.164 M23.529 239.566 C 23.529 239.782,23.888 240.372,24.327 240.877 C 24.766 241.383,25.125 241.663,25.125 241.500 C 25.125 241.336,24.766 240.746,24.327 240.189 C 23.888 239.631,23.529 239.351,23.529 239.566 M127.650 239.785 C 127.742 239.842,128.220 240.229,128.714 240.644 C 129.207 241.060,129.611 241.295,129.611 241.167 C 129.611 240.765,128.378 239.681,127.921 239.681 C 127.681 239.681,127.559 239.728,127.650 239.785 M178.963 239.956 C 178.579 240.056,178.268 240.439,178.271 240.807 C 178.275 241.220,178.390 241.310,178.570 241.043 C 178.732 240.805,179.222 240.406,179.661 240.158 C 180.471 239.698,180.224 239.626,178.963 239.956 M172.948 241.542 C 172.567 241.923,172.620 242.473,173.038 242.473 C 173.234 242.473,173.498 242.203,173.624 241.874 C 173.857 241.266,173.432 241.058,172.948 241.542 M141.001 243.058 C 142.013 243.824,142.606 243.832,141.974 243.071 C 141.701 242.742,141.196 242.473,140.852 242.473 C 140.351 242.473,140.381 242.589,141.001 243.058 M165.726 243.083 C 164.731 243.836,165.100 243.832,166.555 243.073 C 167.183 242.746,167.428 242.482,167.099 242.488 C 166.770 242.493,166.152 242.761,165.726 243.083 M296.824 244.188 C 297.310 244.692,297.781 245.052,297.871 244.988 C 298.103 244.821,296.652 243.270,296.264 243.270 C 296.086 243.270,296.338 243.683,296.824 244.188 M26.412 244.143 C 26.499 244.403,26.784 244.687,27.044 244.774 C 27.336 244.871,27.425 244.689,27.276 244.301 C 26.997 243.576,26.173 243.425,26.412 244.143 M150.830 243.964 C 152.301 244.041,154.813 244.041,156.413 243.965 C 158.013 243.890,156.810 243.827,153.739 243.826 C 150.668 243.826,149.359 243.888,150.830 243.964 M299.900 247.258 C 299.900 247.478,300.069 247.657,300.275 247.657 C 300.480 247.657,302.584 249.532,304.948 251.823 C 307.313 254.115,309.330 255.908,309.430 255.808 C 309.647 255.590,300.649 246.859,300.207 246.859 C 300.039 246.859,299.900 247.039,299.900 247.258 M30.670 249.581 C 30.913 250.034,31.307 250.526,31.547 250.674 C 31.860 250.867,31.859 250.710,31.543 250.120 C 31.301 249.667,30.906 249.175,30.666 249.027 C 30.353 248.834,30.354 248.991,30.670 249.581 M35.525 255.073 C 35.508 255.313,35.852 255.834,36.291 256.231 C 37.008 256.880,37.089 256.887,37.089 256.293 C 37.089 255.930,36.834 255.633,36.524 255.633 C 36.213 255.633,35.868 255.409,35.758 255.135 C 35.642 254.847,35.543 254.821,35.525 255.073 M309.870 256.207 C 309.870 256.303,310.428 256.976,311.110 257.702 C 311.983 258.632,312.215 258.757,311.894 258.126 C 311.643 257.632,311.264 257.228,311.053 257.228 C 310.841 257.228,310.668 256.959,310.668 256.630 C 310.668 256.301,310.489 256.032,310.269 256.032 C 310.050 256.032,309.870 256.111,309.870 256.207 M37.089 257.482 C 37.089 257.845,39.059 259.621,39.463 259.621 C 39.649 259.621,39.299 259.083,38.684 258.425 C 37.599 257.263,37.089 256.961,37.089 257.482 M39.880 260.383 C 39.880 260.636,40.150 260.946,40.479 261.072 C 40.808 261.198,41.077 261.552,41.077 261.857 C 41.077 262.163,41.281 262.413,41.531 262.413 C 41.781 262.413,42.224 262.727,42.516 263.111 C 42.807 263.495,43.051 263.674,43.058 263.510 C 43.065 263.346,42.353 262.472,41.476 261.568 C 40.598 260.663,39.880 260.130,39.880 260.383 M315.454 262.014 C 315.892 262.453,316.342 262.812,316.454 262.812 C 316.566 262.812,316.433 262.453,316.159 262.014 C 315.885 261.575,315.435 261.216,315.158 261.216 C 314.853 261.216,314.969 261.529,315.454 262.014 M43.868 264.818 C 43.868 265.031,44.073 265.204,44.323 265.204 C 44.573 265.204,45.031 265.518,45.342 265.902 C 45.857 266.539,45.871 266.526,45.497 265.750 C 45.063 264.849,43.868 264.165,43.868 264.818 M46.682 267.087 C 46.714 267.535,49.053 269.323,49.053 268.899 C 49.053 268.704,48.514 268.147,47.856 267.660 C 47.198 267.174,46.670 266.916,46.682 267.087 M326.467 272.494 C 326.603 272.884,327.097 273.399,327.564 273.639 C 328.292 274.013,328.331 273.997,327.835 273.528 C 327.516 273.227,327.022 272.712,326.737 272.383 C 326.286 271.862,326.251 271.876,326.467 272.494 M55.595 274.937 C 56.233 275.506,56.838 275.972,56.940 275.972 C 57.332 275.972,56.059 274.713,55.267 274.317 C 54.713 274.040,54.822 274.246,55.595 274.937 M57.428 276.328 C 57.428 276.524,57.697 276.788,58.026 276.914 C 58.390 277.054,58.624 276.915,58.624 276.558 C 58.624 276.236,58.355 275.972,58.026 275.972 C 57.697 275.972,57.428 276.132,57.428 276.328 M330.455 276.482 C 330.591 276.872,331.085 277.387,331.552 277.627 C 332.280 278.001,332.319 277.985,331.823 277.516 C 331.504 277.215,331.010 276.700,330.725 276.371 C 330.274 275.850,330.239 275.864,330.455 276.482 M62.687 280.384 C 62.783 280.672,63.097 280.986,63.385 281.082 C 63.684 281.181,63.833 281.032,63.734 280.733 C 63.638 280.445,63.324 280.131,63.036 280.035 C 62.737 279.935,62.587 280.085,62.687 280.384 M66.999 283.350 C 67.272 283.679,67.675 283.948,67.894 283.948 C 68.117 283.948,68.074 283.684,67.797 283.350 C 67.524 283.021,67.121 282.752,66.901 282.752 C 66.679 282.752,66.722 283.016,66.999 283.350 M70.987 285.495 C 70.987 286.014,72.162 286.894,72.459 286.597 C 72.600 286.456,72.506 286.341,72.250 286.341 C 71.994 286.341,71.785 286.072,71.785 285.743 C 71.785 285.414,71.605 285.145,71.386 285.145 C 71.167 285.145,70.987 285.302,70.987 285.495 M341.584 287.217 C 341.723 287.579,342.092 287.972,342.404 288.092 C 342.716 288.212,342.971 288.585,342.971 288.921 C 342.971 289.257,343.201 289.531,343.481 289.531 C 343.762 289.531,345.142 290.693,346.550 292.113 C 347.957 293.532,349.186 294.616,349.281 294.521 C 349.377 294.425,348.111 293.039,346.468 291.441 C 341.895 286.990,341.299 286.475,341.584 287.217 M82.951 292.282 C 82.951 292.546,83.567 293.020,84.320 293.334 C 85.072 293.649,85.801 294.088,85.938 294.311 C 86.076 294.534,86.379 294.716,86.613 294.716 C 87.294 294.716,86.181 293.584,85.208 293.288 C 84.735 293.144,84.033 292.751,83.649 292.413 C 83.177 291.999,82.951 291.956,82.951 292.282 M223.330 292.801 C 222.634 293.395,222.553 293.572,223.064 293.386 C 223.465 293.240,223.940 293.121,224.118 293.121 C 224.296 293.121,224.544 292.851,224.671 292.522 C 224.988 291.696,224.509 291.795,223.330 292.801 M236.889 292.480 C 236.889 292.785,237.184 293.148,237.545 293.287 C 238.454 293.636,238.477 293.439,237.620 292.622 C 237.064 292.091,236.889 292.057,236.889 292.480 M220.937 294.118 C 220.660 294.451,220.617 294.716,220.840 294.716 C 221.059 294.716,221.462 294.447,221.735 294.118 C 222.012 293.784,222.055 293.519,221.832 293.519 C 221.613 293.519,221.210 293.789,220.937 294.118 M88.626 295.189 C 88.713 295.450,88.997 295.734,89.257 295.821 C 89.549 295.918,89.638 295.736,89.489 295.347 C 89.211 294.622,88.387 294.472,88.626 295.189 M217.989 295.347 C 217.840 295.736,217.929 295.918,218.220 295.821 C 218.816 295.622,219.144 294.716,218.620 294.716 C 218.406 294.716,218.122 295.000,217.989 295.347 M349.751 294.958 C 349.751 295.078,350.289 295.714,350.947 296.372 C 351.797 297.222,352.144 297.386,352.144 296.940 C 352.144 296.594,351.874 296.311,351.545 296.311 C 351.216 296.311,350.947 296.061,350.947 295.756 C 350.947 295.450,350.678 295.097,350.349 294.970 C 350.020 294.844,349.751 294.839,349.751 294.958 M95.007 297.981 C 95.205 298.577,96.112 298.905,96.112 298.381 C 96.112 298.167,95.827 297.883,95.480 297.749 C 95.092 297.600,94.909 297.689,95.007 297.981 M97.707 298.889 C 97.707 298.991,98.062 299.265,98.496 299.497 C 99.139 299.841,99.241 299.807,99.051 299.311 C 98.844 298.773,97.707 298.416,97.707 298.889 M244.865 300.065 C 244.865 300.447,248.441 304.035,248.632 303.844 C 248.731 303.744,247.925 302.804,246.839 301.754 C 245.754 300.704,244.865 299.944,244.865 300.065 M102.668 300.910 C 103.094 301.232,103.722 301.494,104.064 301.493 C 104.406 301.492,104.172 301.223,103.544 300.895 C 102.098 300.141,101.661 300.148,102.668 300.910 M203.789 300.931 C 202.854 301.449,202.845 301.484,203.640 301.490 C 204.107 301.493,204.712 301.226,204.985 300.897 C 205.586 300.173,205.132 300.185,203.789 300.931 M356.530 301.612 C 356.859 301.897,357.375 302.391,357.676 302.710 C 358.144 303.207,358.160 303.168,357.787 302.440 C 357.547 301.972,357.031 301.478,356.641 301.342 C 356.024 301.127,356.009 301.162,356.530 301.612 M200.450 302.103 C 200.260 302.599,200.363 302.633,201.006 302.288 C 201.930 301.794,202.018 301.496,201.239 301.496 C 200.934 301.496,200.579 301.769,200.450 302.103 M116.451 304.885 C 116.724 305.214,117.239 305.463,117.596 305.437 C 118.144 305.398,118.136 305.363,117.547 305.209 C 117.164 305.108,116.849 304.860,116.849 304.657 C 116.849 304.453,116.648 304.287,116.402 304.287 C 116.093 304.287,116.108 304.472,116.451 304.885 M190.628 304.657 C 190.628 304.860,190.314 305.108,189.930 305.209 C 189.380 305.353,189.413 305.401,190.087 305.437 C 190.557 305.463,191.045 305.214,191.171 304.885 C 191.297 304.556,191.227 304.287,191.014 304.287 C 190.802 304.287,190.628 304.453,190.628 304.657 M249.252 304.529 C 249.252 304.815,251.171 306.680,251.466 306.680 C 252.000 306.680,251.497 305.923,250.449 305.148 C 249.791 304.661,249.252 304.383,249.252 304.529 M121.635 306.082 C 121.635 306.411,121.926 306.680,122.282 306.680 C 122.812 306.680,122.839 306.572,122.433 306.082 C 122.160 305.753,121.868 305.484,121.786 305.484 C 121.703 305.484,121.635 305.753,121.635 306.082 M184.608 306.128 C 184.145 306.685,184.175 306.752,184.825 306.626 C 185.239 306.546,185.652 306.256,185.743 305.982 C 185.980 305.271,185.240 305.366,184.608 306.128 M129.611 307.016 C 129.611 307.686,131.013 308.280,132.476 308.229 L 133.799 308.183 132.324 307.897 C 131.513 307.739,130.571 307.379,130.230 307.096 C 129.834 306.767,129.611 306.738,129.611 307.016 M176.992 307.111 C 176.913 307.348,176.225 307.689,175.463 307.868 C 174.164 308.173,174.148 308.196,175.201 308.234 C 176.449 308.280,177.866 307.658,177.866 307.065 C 177.866 306.540,177.170 306.576,176.992 307.111 M252.044 307.029 C 252.044 307.552,255.311 310.724,255.576 310.459 C 255.666 310.370,254.907 309.453,253.891 308.422 C 252.875 307.392,252.044 306.765,252.044 307.029 M141.751 308.841 C 142.304 309.291,143.274 309.454,145.141 309.409 L 147.757 309.346 145.165 309.082 C 143.739 308.936,142.213 308.681,141.775 308.514 C 140.989 308.214,140.988 308.219,141.751 308.841 M165.339 308.574 C 165.176 308.739,162.947 308.982,160.387 309.115 L 155.733 309.357 160.799 309.314 C 164.270 309.285,166.021 309.115,166.362 308.774 C 166.759 308.375,166.737 308.275,166.248 308.275 C 165.912 308.275,165.503 308.410,165.339 308.574 M363.954 308.785 C 364.090 309.175,364.584 309.690,365.052 309.930 C 365.780 310.304,365.819 310.288,365.322 309.820 C 365.003 309.518,364.509 309.003,364.225 308.674 C 363.774 308.153,363.739 308.167,363.954 308.785 M256.123 311.142 C 256.370 311.881,257.228 312.004,257.228 311.299 C 257.228 310.952,256.944 310.668,256.597 310.668 C 256.250 310.668,256.036 310.881,256.123 311.142 M258.824 313.783 C 258.824 313.962,259.362 314.505,260.020 314.992 C 261.483 316.074,261.566 315.839,260.201 314.475 C 259.132 313.406,258.824 313.251,258.824 313.783 M383.250 327.693 C 383.250 327.933,383.519 328.233,383.848 328.360 C 384.177 328.486,384.447 328.864,384.447 329.200 C 384.447 329.536,384.671 329.814,384.945 329.817 C 385.553 329.826,387.238 331.547,387.238 332.160 C 387.238 332.403,387.486 332.602,387.788 332.602 C 388.090 332.602,388.564 332.876,388.841 333.210 C 389.119 333.544,389.440 333.724,389.554 333.610 C 389.669 333.495,388.970 332.662,388.002 331.757 C 387.034 330.853,385.568 329.470,384.746 328.685 C 383.923 327.899,383.250 327.453,383.250 327.693 M391.226 335.992 C 391.226 336.321,391.517 336.590,391.873 336.590 C 392.403 336.590,392.431 336.482,392.024 335.992 C 391.751 335.663,391.460 335.394,391.377 335.394 C 391.294 335.394,391.226 335.663,391.226 335.992 M395.214 341.189 C 395.214 341.511,395.484 341.775,395.813 341.775 C 396.142 341.775,396.411 341.614,396.411 341.419 C 396.411 341.223,396.142 340.959,395.813 340.833 C 395.448 340.693,395.214 340.832,395.214 341.189 M287.139 341.493 C 287.468 341.778,287.983 342.272,288.284 342.591 C 288.753 343.087,288.768 343.048,288.395 342.320 C 288.155 341.852,287.639 341.358,287.249 341.222 C 286.632 341.007,286.618 341.042,287.139 341.493 M290.329 344.310 C 290.329 344.708,292.702 347.112,292.900 346.914 C 293.009 346.805,292.476 346.127,291.714 345.409 C 290.952 344.691,290.329 344.196,290.329 344.310 M293.526 347.582 C 293.535 348.063,295.480 349.917,295.721 349.676 C 295.822 349.575,295.367 348.979,294.712 348.351 C 294.056 347.723,293.523 347.377,293.526 347.582 M296.311 350.561 C 296.311 350.773,296.580 350.947,296.909 350.947 C 297.238 350.947,297.507 351.197,297.507 351.503 C 297.507 351.808,297.777 352.162,298.107 352.288 C 298.628 352.488,298.625 352.394,298.083 351.567 C 297.416 350.550,296.311 349.922,296.311 350.561 M303.131 356.830 C 303.154 356.994,304.057 357.923,305.140 358.893 C 306.222 359.864,306.997 360.371,306.863 360.021 C 306.728 359.670,306.363 359.286,306.051 359.166 C 305.739 359.046,305.484 358.673,305.484 358.338 C 305.484 358.002,305.214 357.727,304.885 357.727 C 304.556 357.727,304.287 357.458,304.287 357.129 C 304.287 356.800,304.018 356.530,303.689 356.530 C 303.360 356.530,303.109 356.665,303.131 356.830 M320.638 373.796 C 320.967 374.081,321.483 374.575,321.784 374.894 C 322.252 375.390,322.268 375.351,321.894 374.623 C 321.654 374.155,321.139 373.662,320.749 373.526 C 320.131 373.310,320.117 373.345,320.638 373.796 M327.874 381.050 C 328.391 381.595,328.974 382.043,329.171 382.047 C 329.367 382.051,329.044 381.605,328.452 381.057 C 327.063 379.769,326.655 379.764,327.874 381.050 M395.214 382.640 C 395.214 382.996,395.448 383.135,395.813 382.996 C 396.142 382.869,396.411 382.606,396.411 382.410 C 396.411 382.214,396.142 382.054,395.813 382.054 C 395.484 382.054,395.214 382.317,395.214 382.640 M391.226 387.885 C 391.226 388.415,391.335 388.443,391.825 388.036 C 392.154 387.763,392.423 387.472,392.423 387.389 C 392.423 387.306,392.154 387.238,391.825 387.238 C 391.496 387.238,391.226 387.529,391.226 387.885 M388.435 390.661 C 388.435 391.009,388.648 391.222,388.908 391.135 C 389.648 390.888,389.770 390.030,389.066 390.030 C 388.719 390.030,388.435 390.314,388.435 390.661 M338.983 391.611 C 338.983 391.823,339.350 392.192,339.799 392.432 C 340.552 392.836,340.576 392.806,340.102 392.048 C 339.563 391.185,338.983 390.958,338.983 391.611 M383.848 394.418 C 383.694 394.667,383.182 395.027,382.711 395.217 C 382.152 395.442,382.071 395.571,382.476 395.588 C 383.261 395.620,384.732 394.569,384.386 394.223 C 384.244 394.081,384.002 394.169,383.848 394.418 M351.346 398.405 C 351.346 398.624,351.615 398.804,351.944 398.804 C 352.273 398.804,352.542 398.624,352.542 398.405 C 352.542 398.185,352.273 398.006,351.944 398.006 C 351.615 398.006,351.346 398.185,351.346 398.405 " stroke="none" fill="#000000" fill-rule="evenodd"></path><path id="path1" d="M152.649 63.699 C 153.366 63.788,154.443 63.786,155.042 63.695 C 155.641 63.604,155.055 63.531,153.739 63.533 C 152.423 63.536,151.932 63.610,152.649 63.699 M89.731 90.002 C 88.847 90.937,88.830 91.005,89.584 90.604 C 90.052 90.355,90.540 89.878,90.668 89.542 C 90.981 88.728,90.895 88.770,89.731 90.002 M243.789 147.557 C 243.789 148.764,243.863 149.257,243.955 148.654 C 244.046 148.051,244.046 147.064,243.955 146.461 C 243.863 145.857,243.789 146.351,243.789 147.557 M63.562 153.739 C 63.563 156.371,63.627 157.396,63.705 156.016 C 63.784 154.637,63.783 152.483,63.704 151.231 C 63.625 149.978,63.561 151.107,63.562 153.739 M309.165 150.748 C 309.165 151.515,309.247 151.830,309.348 151.446 C 309.448 151.062,309.448 150.434,309.348 150.050 C 309.247 149.666,309.165 149.980,309.165 150.748 M243.793 160.120 C 243.795 161.436,243.869 161.926,243.958 161.209 C 244.047 160.492,244.045 159.416,243.954 158.816 C 243.863 158.217,243.790 158.804,243.793 160.120 M308.558 164.370 C 308.404 164.953,308.177 165.760,308.052 166.164 C 307.928 166.569,308.117 166.395,308.474 165.780 C 308.831 165.164,309.058 164.356,308.980 163.985 C 308.879 163.511,308.754 163.626,308.558 164.370 M144.272 243.951 C 144.768 244.046,145.486 244.043,145.867 243.943 C 146.248 243.843,145.842 243.765,144.965 243.770 C 144.088 243.774,143.776 243.856,144.272 243.951 M162.014 243.944 C 162.398 244.044,163.026 244.044,163.410 243.944 C 163.794 243.844,163.480 243.762,162.712 243.762 C 161.944 243.762,161.630 243.844,162.014 243.944 M130.984 307.256 C 131.409 307.597,132.037 307.862,132.379 307.845 C 132.916 307.818,132.920 307.783,132.403 307.592 C 132.074 307.470,131.446 307.205,131.007 307.003 C 130.222 306.642,130.222 306.646,130.984 307.256 M162.911 308.674 C 161.826 308.950,161.807 308.980,162.712 308.998 C 163.260 309.008,164.068 308.862,164.506 308.674 C 165.490 308.251,164.572 308.251,162.911 308.674 " stroke="none" fill="#141414" fill-rule="evenodd"></path><path id="path2" d="M189.194 2.699 C 190.098 3.758,190.081 3.754,190.381 2.970 C 190.523 2.601,190.453 2.454,190.207 2.606 C 189.981 2.746,189.489 2.624,189.115 2.334 C 188.597 1.934,188.616 2.021,189.194 2.699 M28.154 61.752 C 28.016 61.976,28.098 62.278,28.335 62.425 C 28.948 62.804,29.344 62.285,28.832 61.773 C 28.546 61.487,28.323 61.480,28.154 61.752 M147.856 63.691 C 148.350 63.786,149.158 63.786,149.651 63.691 C 150.145 63.596,149.741 63.518,148.754 63.518 C 147.767 63.518,147.363 63.596,147.856 63.691 M157.827 63.691 C 158.320 63.786,159.128 63.786,159.621 63.691 C 160.115 63.596,159.711 63.518,158.724 63.518 C 157.737 63.518,157.333 63.596,157.827 63.691 M174.453 65.616 C 174.879 65.938,175.407 66.201,175.626 66.201 C 175.845 66.201,175.676 65.938,175.251 65.616 C 174.825 65.294,174.297 65.030,174.078 65.030 C 173.858 65.030,174.027 65.294,174.453 65.616 M25.493 65.503 C 25.151 66.620,25.242 66.999,25.750 66.577 C 26.059 66.321,26.214 65.952,26.094 65.757 C 25.887 65.423,25.560 65.285,25.493 65.503 M17.412 79.291 C 16.455 80.348,16.596 80.712,17.581 79.727 C 18.038 79.271,18.336 78.821,18.243 78.728 C 18.150 78.635,17.776 78.889,17.412 79.291 M93.811 85.914 C 92.992 86.777,92.979 86.849,93.674 86.668 C 94.097 86.557,94.532 86.124,94.642 85.706 C 94.888 84.763,94.906 84.758,93.811 85.914 M7.210 103.214 C 7.193 103.501,7.036 103.648,6.862 103.541 C 6.689 103.433,6.520 103.694,6.488 104.119 C 6.436 104.812,6.494 104.829,7.036 104.288 C 7.369 103.954,7.551 103.459,7.441 103.187 C 7.289 102.811,7.234 102.817,7.210 103.214 M228.926 103.561 C 228.948 104.122,230.110 105.469,230.110 104.933 C 230.110 104.656,229.840 104.160,229.511 103.831 C 229.182 103.502,228.919 103.381,228.926 103.561 M304.067 116.883 C 303.915 117.128,304.207 117.714,304.714 118.186 C 305.221 118.657,305.407 118.737,305.127 118.362 C 304.847 117.988,304.725 117.507,304.858 117.293 C 304.990 117.079,304.928 116.800,304.720 116.671 C 304.512 116.543,304.218 116.638,304.067 116.883 M2.644 117.731 C 2.763 117.923,2.643 118.342,2.378 118.662 C 2.113 118.981,2.069 119.242,2.280 119.242 C 2.491 119.242,2.854 118.824,3.088 118.312 C 3.419 117.585,3.393 117.381,2.970 117.381 C 2.672 117.381,2.525 117.539,2.644 117.731 M63.943 140.206 C 63.811 140.550,63.932 141.044,64.213 141.303 C 64.588 141.649,64.654 141.651,64.463 141.310 C 64.320 141.055,64.428 140.755,64.703 140.644 C 65.092 140.487,65.087 140.435,64.682 140.410 C 64.395 140.393,64.271 140.199,64.407 139.980 C 64.542 139.761,64.547 139.581,64.418 139.581 C 64.288 139.581,64.074 139.863,63.943 140.206 M63.502 146.760 C 63.502 147.527,63.584 147.841,63.685 147.458 C 63.785 147.074,63.785 146.446,63.685 146.062 C 63.584 145.678,63.502 145.992,63.502 146.760 M308.923 153.190 C 308.557 155.022,308.619 156.331,309.073 156.331 C 309.292 156.331,309.472 155.344,309.472 154.138 C 309.472 151.666,309.291 151.353,308.923 153.190 M243.675 157.228 C 243.680 157.954,243.755 158.011,244.068 157.527 C 244.567 156.754,244.567 156.331,244.068 156.331 C 243.848 156.331,243.672 156.735,243.675 157.228 M63.502 160.718 C 63.502 161.486,63.584 161.800,63.685 161.416 C 63.785 161.032,63.785 160.404,63.685 160.020 C 63.584 159.636,63.502 159.950,63.502 160.718 M308.738 160.386 C 308.703 160.971,308.558 161.779,308.416 162.181 C 308.218 162.741,308.271 162.807,308.644 162.463 C 308.918 162.212,309.059 161.425,308.966 160.669 C 308.832 159.574,308.790 159.521,308.738 160.386 M303.439 194.118 C 303.246 195.248,303.232 196.203,303.410 196.025 C 303.674 195.761,303.896 193.819,303.662 193.819 C 303.567 193.819,303.467 193.953,303.439 194.118 M229.611 202.659 C 229.227 203.061,229.025 203.390,229.161 203.390 C 229.298 203.390,229.186 203.659,228.913 203.988 C 228.640 204.317,228.516 204.586,228.638 204.586 C 228.927 204.586,230.639 202.181,230.452 202.038 C 230.374 201.977,229.995 202.257,229.611 202.659 M107.223 231.282 C 107.740 231.734,108.354 232.104,108.585 232.104 C 109.076 232.104,109.052 232.084,107.478 231.162 L 106.281 230.461 107.223 231.282 M127.305 240.141 C 127.404 240.436,127.649 240.681,127.850 240.684 C 128.051 240.687,128.467 240.850,128.775 241.045 C 129.160 241.288,129.247 241.255,129.052 240.941 C 128.581 240.179,127.090 239.496,127.305 240.141 M167.498 242.891 C 167.498 243.169,167.217 243.249,166.800 243.090 C 166.271 242.888,166.213 242.936,166.562 243.288 C 166.873 243.601,167.245 243.627,167.710 243.367 C 168.175 243.106,168.252 242.892,167.948 242.704 C 167.700 242.551,167.498 242.635,167.498 242.891 M159.621 243.944 C 160.005 244.044,160.633 244.044,161.017 243.944 C 161.401 243.844,161.087 243.762,160.319 243.762 C 159.551 243.762,159.237 243.844,159.621 243.944 M313.280 260.527 C 313.458 260.991,315.055 262.207,315.055 261.879 C 315.055 261.618,313.569 260.020,313.326 260.020 C 313.194 260.020,313.173 260.248,313.280 260.527 M242.166 297.109 C 242.440 297.547,242.890 297.906,243.167 297.906 C 243.472 297.906,243.356 297.594,242.871 297.109 C 242.433 296.670,241.983 296.311,241.871 296.311 C 241.759 296.311,241.892 296.670,242.166 297.109 M96.112 297.972 C 96.112 298.281,96.491 298.563,96.954 298.598 C 97.418 298.633,97.732 298.620,97.652 298.570 C 97.573 298.519,97.193 298.238,96.810 297.944 C 96.222 297.495,96.112 297.499,96.112 297.972 M107.500 302.010 C 107.609 302.292,108.073 302.552,108.532 302.587 C 109.336 302.647,109.339 302.629,108.621 302.085 C 107.683 301.375,107.246 301.345,107.500 302.010 M194.565 303.355 C 194.072 303.953,194.102 303.974,194.863 303.569 C 195.327 303.321,195.850 303.247,196.023 303.404 C 196.197 303.561,196.210 303.465,196.052 303.190 C 195.663 302.515,195.218 302.564,194.565 303.355 M182.054 306.262 C 181.448 306.508,181.614 306.578,182.747 306.554 C 183.635 306.535,184.038 306.395,183.744 306.208 C 183.162 305.838,183.093 305.841,182.054 306.262 M147.036 308.973 C 147.981 309.672,161.776 309.418,161.338 308.709 C 161.255 308.575,159.601 308.586,157.662 308.734 C 152.758 309.109,147.792 309.071,149.352 308.672 C 150.313 308.427,150.136 308.377,148.456 308.420 C 146.681 308.466,146.465 308.550,147.036 308.973 M367.881 313.442 C 368.286 313.891,368.904 314.236,369.254 314.211 C 369.771 314.173,369.760 314.131,369.192 313.982 C 368.809 313.882,368.495 313.653,368.495 313.473 C 368.495 313.293,368.191 313.029,367.819 312.887 C 367.227 312.660,367.235 312.728,367.881 313.442 M389.604 334.308 C 390.357 335.118,391.044 335.709,391.133 335.620 C 391.309 335.444,390.231 334.322,389.016 333.417 C 388.586 333.098,388.851 333.499,389.604 334.308 " stroke="none" fill="#242424" fill-rule="evenodd"></path><path id="path3" d="" stroke="none" fill="#555555" fill-rule="evenodd"></path><path id="path4" d="M130.342 0.367 C 130.269 0.568,129.043 0.819,127.617 0.924 C 124.704 1.139,123.918 1.282,123.629 1.650 C 123.519 1.790,122.545 2.024,121.463 2.170 C 120.382 2.316,119.350 2.526,119.170 2.637 C 118.991 2.748,118.843 2.642,118.843 2.401 C 118.843 2.160,118.451 2.329,117.971 2.776 C 117.204 3.491,115.731 3.784,113.360 3.696 C 113.086 3.686,112.861 3.867,112.861 4.099 C 112.861 4.330,112.743 4.402,112.599 4.257 C 112.455 4.113,112.141 4.158,111.901 4.356 C 111.662 4.555,110.658 4.833,109.671 4.974 C 108.684 5.115,107.677 5.490,107.434 5.806 C 107.172 6.145,106.304 6.381,105.316 6.381 C 104.395 6.381,103.744 6.546,103.868 6.747 C 103.993 6.949,103.510 7.240,102.795 7.395 C 102.080 7.550,100.778 7.985,99.900 8.363 C 98.055 9.156,95.725 9.937,94.488 10.175 C 94.015 10.266,93.424 10.618,93.175 10.956 C 92.926 11.295,92.004 11.637,91.127 11.716 C 90.249 11.796,89.570 12.045,89.617 12.270 C 89.664 12.494,89.081 12.795,88.321 12.937 C 87.497 13.092,86.939 13.431,86.939 13.777 C 86.939 14.132,86.547 14.357,85.930 14.357 C 85.374 14.357,84.817 14.626,84.691 14.955 C 84.564 15.284,84.046 15.553,83.539 15.553 C 82.203 15.553,81.356 15.957,81.356 16.593 C 81.356 16.899,81.010 17.149,80.587 17.149 C 80.164 17.149,79.548 17.418,79.219 17.747 C 78.890 18.076,78.415 18.345,78.162 18.345 C 77.909 18.345,76.775 18.959,75.641 19.710 C 74.507 20.461,73.325 21.134,73.014 21.206 C 72.704 21.277,72.120 21.650,71.718 22.034 C 71.316 22.418,70.718 22.732,70.389 22.732 C 70.060 22.732,69.791 22.909,69.791 23.125 C 69.791 23.342,69.207 23.766,68.495 24.067 C 67.782 24.369,66.857 24.999,66.439 25.468 C 66.021 25.937,65.482 26.327,65.242 26.334 C 64.666 26.350,62.612 28.169,62.612 28.663 C 62.612 28.875,62.089 29.164,61.449 29.305 C 60.809 29.445,60.187 29.818,60.066 30.134 C 59.945 30.450,59.571 30.708,59.235 30.708 C 58.899 30.708,58.624 30.977,58.624 31.306 C 58.624 31.635,58.349 31.904,58.013 31.904 C 57.678 31.904,57.299 32.173,57.173 32.502 C 57.047 32.832,56.688 33.101,56.376 33.101 C 56.063 33.101,55.704 33.370,55.578 33.699 C 55.452 34.028,55.098 34.297,54.793 34.297 C 54.487 34.297,54.237 34.487,54.237 34.719 C 54.237 34.952,54.030 35.014,53.777 34.857 C 53.483 34.675,53.425 34.748,53.618 35.060 C 53.809 35.370,53.614 35.627,53.081 35.766 C 52.620 35.887,52.243 36.234,52.243 36.537 C 52.243 36.840,51.884 37.089,51.446 37.089 C 51.007 37.089,50.646 37.313,50.643 37.587 C 50.640 37.861,50.012 38.491,49.247 38.987 C 48.482 39.482,47.856 40.155,47.856 40.482 C 47.856 40.809,47.686 41.077,47.478 41.077 C 46.929 41.077,45.065 42.883,45.065 43.416 C 45.065 43.665,44.796 43.868,44.467 43.868 C 44.138 43.868,43.868 44.125,43.868 44.440 C 43.868 44.754,43.509 45.125,43.071 45.264 C 42.632 45.403,42.273 45.650,42.273 45.813 C 42.273 45.976,41.107 47.310,39.681 48.778 C 38.255 50.247,37.089 51.537,37.089 51.646 C 37.089 52.042,35.554 53.367,35.342 53.156 C 35.223 53.036,34.894 53.455,34.611 54.086 C 34.329 54.718,33.517 55.821,32.808 56.537 C 32.099 57.254,31.491 57.971,31.456 58.132 C 31.365 58.556,30.205 60.330,29.616 60.946 C 29.339 61.236,29.113 61.729,29.113 62.042 C 29.113 62.356,28.925 62.612,28.695 62.612 C 28.099 62.612,26.349 64.689,26.334 65.415 C 26.327 65.750,25.796 66.599,25.154 67.302 C 24.512 68.004,23.877 68.926,23.743 69.348 C 23.608 69.771,23.236 70.335,22.916 70.601 C 22.595 70.867,22.333 71.422,22.333 71.833 C 22.333 72.245,22.064 72.582,21.735 72.582 C 21.406 72.582,21.137 72.853,21.137 73.184 C 21.137 73.516,20.778 74.094,20.339 74.469 C 19.900 74.845,19.541 75.471,19.541 75.861 C 19.541 76.251,19.376 76.570,19.174 76.570 C 18.972 76.570,18.685 77.127,18.535 77.807 C 18.386 78.488,17.923 79.385,17.507 79.801 C 17.090 80.218,16.750 80.828,16.750 81.157 C 16.750 81.486,16.585 81.755,16.383 81.755 C 16.181 81.755,15.895 82.305,15.747 82.978 C 15.599 83.651,15.226 84.298,14.918 84.417 C 14.609 84.535,14.357 85.161,14.357 85.809 C 14.357 86.456,14.190 86.883,13.986 86.757 C 13.502 86.458,13.249 86.901,12.956 88.565 C 12.824 89.312,12.457 90.069,12.141 90.246 C 11.824 90.423,11.565 91.098,11.565 91.745 C 11.565 92.392,11.375 92.921,11.143 92.921 C 10.911 92.921,10.832 93.101,10.967 93.320 C 11.103 93.539,11.038 93.719,10.823 93.719 C 10.608 93.719,10.305 94.299,10.149 95.009 C 9.993 95.719,9.619 96.675,9.318 97.135 C 9.017 97.594,8.882 98.081,9.017 98.216 C 9.153 98.352,8.884 99.076,8.420 99.827 C 7.957 100.577,7.577 101.843,7.577 102.639 C 7.577 103.436,7.405 104.088,7.194 104.088 C 6.983 104.088,6.605 104.850,6.355 105.783 C 6.104 106.715,5.732 107.582,5.528 107.709 C 5.324 107.836,5.054 108.990,4.928 110.274 C 4.802 111.557,4.449 112.856,4.144 113.161 C 3.839 113.466,3.589 114.496,3.589 115.450 C 3.589 117.330,3.266 118.539,2.835 118.272 C 2.686 118.180,2.543 118.405,2.518 118.773 C 2.492 119.141,2.364 119.980,2.233 120.638 C 2.101 121.296,1.875 122.463,1.730 123.230 C 1.586 123.998,1.407 124.895,1.333 125.224 C 1.260 125.553,1.086 126.810,0.947 128.016 C 0.807 129.222,0.538 130.269,0.347 130.342 C -0.120 130.521,-0.106 176.564,0.361 176.736 C 0.559 176.810,0.804 178.227,0.905 179.886 C 1.006 181.546,1.273 183.250,1.498 183.675 C 1.723 184.099,2.018 185.254,2.153 186.241 C 2.564 189.242,2.822 190.384,3.192 190.830 C 3.387 191.064,3.600 192.084,3.667 193.097 C 3.734 194.110,3.909 194.864,4.055 194.774 C 4.330 194.604,4.606 195.640,5.021 198.405 C 5.153 199.282,5.460 200.242,5.703 200.539 C 6.143 201.073,6.259 201.466,6.548 203.390 C 6.630 203.938,6.873 204.349,7.088 204.304 C 7.303 204.258,7.595 205.097,7.737 206.168 C 7.879 207.239,8.191 208.181,8.430 208.260 C 8.669 208.340,8.915 208.864,8.977 209.426 C 9.038 209.987,9.377 211.003,9.729 211.684 C 10.081 212.365,10.369 213.200,10.369 213.540 C 10.369 213.879,10.540 214.158,10.750 214.158 C 10.959 214.158,11.250 214.794,11.396 215.573 C 11.542 216.351,11.905 217.232,12.202 217.529 C 12.500 217.827,12.786 218.626,12.837 219.304 C 12.905 220.188,13.133 220.538,13.644 220.538 C 14.133 220.538,14.357 220.843,14.357 221.507 C 14.357 222.040,14.626 222.745,14.955 223.074 C 15.284 223.403,15.555 223.909,15.556 224.199 C 15.557 224.489,15.906 225.253,16.331 225.897 C 16.756 226.542,17.030 227.188,16.940 227.332 C 16.851 227.477,17.130 227.975,17.561 228.437 C 17.992 228.900,18.345 229.645,18.345 230.093 C 18.345 230.541,18.569 230.862,18.843 230.808 C 19.142 230.748,19.392 231.230,19.468 232.012 C 19.537 232.729,19.760 233.212,19.964 233.086 C 20.169 232.960,20.558 233.360,20.831 233.976 C 21.103 234.591,21.598 235.332,21.929 235.623 C 22.272 235.923,22.304 236.034,22.004 235.880 C 21.567 235.656,21.567 235.754,22.001 236.449 C 22.289 236.910,22.672 237.288,22.851 237.288 C 23.031 237.288,23.067 237.468,22.931 237.687 C 22.796 237.906,22.965 238.086,23.306 238.086 C 23.662 238.086,23.928 238.427,23.928 238.883 C 23.928 239.322,24.088 239.681,24.284 239.681 C 24.479 239.681,24.752 240.130,24.890 240.678 C 25.027 241.226,25.406 241.675,25.730 241.675 C 26.055 241.675,26.321 242.015,26.321 242.430 C 26.321 242.845,26.602 243.293,26.945 243.424 C 27.287 243.556,27.456 243.844,27.320 244.065 C 27.183 244.286,27.292 244.467,27.560 244.467 C 27.829 244.467,27.947 244.568,27.823 244.693 C 27.699 244.817,28.072 245.423,28.654 246.038 C 30.408 247.895,31.711 249.677,31.605 250.074 C 31.550 250.280,31.685 250.449,31.904 250.449 C 32.124 250.449,32.303 250.718,32.303 251.047 C 32.303 251.376,32.438 251.603,32.602 251.552 C 33.026 251.421,34.696 252.933,34.696 253.447 C 34.696 253.683,35.227 254.316,35.875 254.854 C 36.524 255.392,37.063 255.958,37.072 256.111 C 37.102 256.601,39.166 258.628,39.530 258.524 C 39.723 258.470,39.880 258.631,39.880 258.883 C 39.880 259.135,40.464 259.934,41.176 260.658 C 41.889 261.382,43.164 262.701,44.009 263.589 C 44.854 264.478,45.706 265.204,45.903 265.204 C 46.100 265.204,46.261 265.394,46.261 265.627 C 46.261 265.859,46.054 265.921,45.801 265.765 C 45.507 265.583,45.449 265.656,45.641 265.967 C 45.807 266.235,46.041 266.355,46.161 266.235 C 46.281 266.115,46.712 266.400,47.118 266.868 C 47.524 267.336,47.856 267.588,47.856 267.427 C 47.856 267.267,48.581 267.867,49.467 268.762 C 50.353 269.657,51.154 270.389,51.248 270.389 C 51.342 270.389,52.047 271.017,52.815 271.785 C 53.583 272.552,54.360 273.180,54.542 273.180 C 54.725 273.180,55.493 273.792,56.250 274.538 C 57.007 275.285,57.743 275.824,57.886 275.736 C 58.028 275.648,58.696 276.203,59.369 276.970 C 60.043 277.737,60.757 278.365,60.956 278.365 C 61.155 278.365,61.618 278.769,61.984 279.262 C 62.350 279.756,62.529 279.917,62.382 279.620 C 62.198 279.247,62.440 279.293,63.161 279.765 C 63.737 280.142,64.207 280.597,64.207 280.776 C 64.207 280.955,64.611 281.163,65.105 281.238 C 65.598 281.313,65.963 281.577,65.916 281.824 C 65.868 282.071,66.272 282.384,66.813 282.520 C 67.354 282.656,67.797 282.943,67.797 283.158 C 67.797 283.373,68.090 283.549,68.448 283.549 C 68.806 283.549,69.420 283.920,69.813 284.373 C 70.206 284.826,70.631 285.185,70.757 285.171 C 71.653 285.069,72.273 285.188,72.042 285.419 C 71.758 285.703,75.066 287.936,75.772 287.936 C 75.991 287.936,76.171 288.126,76.171 288.359 C 76.171 288.591,76.351 288.670,76.570 288.534 C 76.790 288.399,76.969 288.478,76.969 288.710 C 76.969 288.943,77.334 289.133,77.780 289.133 C 78.247 289.133,78.743 289.512,78.951 290.030 C 79.149 290.523,79.323 290.707,79.337 290.437 C 79.375 289.688,81.348 290.701,81.387 291.490 C 81.405 291.838,81.503 291.917,81.607 291.666 C 81.824 291.135,84.148 292.127,84.148 292.751 C 84.148 292.954,84.667 293.121,85.301 293.121 C 85.936 293.121,86.549 293.364,86.663 293.662 C 86.847 294.142,89.043 294.910,89.831 294.769 C 89.995 294.740,90.130 294.985,90.130 295.314 C 90.130 295.724,90.541 295.912,91.437 295.912 C 92.260 295.912,93.002 296.214,93.441 296.727 C 93.825 297.175,94.307 297.437,94.513 297.310 C 94.718 297.183,96.014 297.606,97.393 298.250 C 98.772 298.894,100.708 299.636,101.695 299.899 C 102.682 300.162,103.669 300.523,103.888 300.701 C 104.108 300.879,105.005 301.145,105.882 301.291 C 106.760 301.438,108.016 301.793,108.674 302.080 C 112.299 303.665,113.047 303.888,114.738 303.888 C 115.766 303.888,116.867 304.138,117.217 304.451 C 117.742 304.921,120.774 305.552,122.749 305.603 C 123.053 305.611,123.166 305.876,123.024 306.248 C 122.840 306.733,122.894 306.771,123.257 306.410 C 123.545 306.124,124.062 306.061,124.577 306.249 C 125.298 306.511,127.834 306.719,131.505 306.816 C 131.999 306.829,132.403 306.964,132.403 307.115 C 132.403 307.730,134.894 308.020,143.436 308.401 C 144.350 308.441,145.233 308.609,145.397 308.774 C 145.811 309.188,146.855 309.151,146.596 308.732 C 146.480 308.545,147.171 308.571,148.132 308.791 C 149.261 309.050,151.873 309.064,155.536 308.833 C 158.648 308.636,161.282 308.618,161.390 308.793 C 161.498 308.968,161.795 308.942,162.049 308.734 C 162.304 308.526,163.230 308.348,164.108 308.339 C 171.209 308.265,174.992 307.798,175.567 306.925 C 175.760 306.632,175.864 306.685,175.872 307.079 C 175.881 307.491,175.976 307.533,176.180 307.213 C 176.352 306.943,177.831 306.693,179.725 306.615 C 181.567 306.539,182.876 306.322,182.748 306.114 C 182.623 305.912,182.820 305.861,183.185 306.001 C 183.550 306.142,183.848 306.116,183.848 305.944 C 183.848 305.773,184.642 305.592,185.611 305.541 C 188.097 305.413,188.906 305.219,189.919 304.510 C 190.406 304.168,191.551 303.888,192.463 303.888 C 193.449 303.888,194.321 303.646,194.616 303.290 C 194.944 302.895,195.835 302.692,197.237 302.692 C 198.765 302.692,199.462 302.514,199.717 302.058 C 199.912 301.709,200.192 301.448,200.338 301.477 C 200.865 301.582,203.593 300.976,203.789 300.711 C 204.205 300.145,207.776 299.203,207.789 299.656 C 207.795 299.900,207.984 299.786,208.207 299.402 C 208.431 299.018,208.995 298.704,209.460 298.704 C 209.925 298.704,210.618 298.422,210.998 298.077 C 211.379 297.733,212.201 297.400,212.824 297.337 C 214.361 297.182,215.397 296.703,215.129 296.269 C 215.007 296.073,215.457 295.912,216.128 295.912 C 216.947 295.912,217.348 295.715,217.348 295.314 C 217.348 294.985,217.483 294.740,217.647 294.769 C 218.436 294.910,220.511 294.165,220.700 293.674 C 220.817 293.370,221.372 293.121,221.934 293.121 C 222.496 293.121,223.060 292.851,223.186 292.522 C 223.312 292.193,223.870 291.924,224.425 291.924 C 224.981 291.924,225.693 291.610,226.008 291.226 C 226.322 290.842,226.444 290.788,226.279 291.105 C 226.095 291.456,226.453 291.344,227.191 290.818 C 227.859 290.343,228.534 290.083,228.692 290.241 C 228.850 290.399,228.920 290.259,228.847 289.930 C 228.758 289.529,229.083 289.290,229.834 289.204 C 230.450 289.133,231.053 288.819,231.173 288.506 C 231.486 287.690,233.167 287.803,234.064 288.701 C 234.485 289.121,234.724 289.570,234.596 289.698 C 234.468 289.826,234.584 289.930,234.852 289.930 C 235.121 289.930,235.213 290.137,235.057 290.391 C 234.884 290.671,234.947 290.743,235.218 290.575 C 235.467 290.421,236.417 291.053,237.373 292.009 C 238.313 292.950,239.231 293.670,239.411 293.609 C 239.592 293.549,239.619 293.696,239.471 293.935 C 239.319 294.181,239.561 294.465,240.026 294.586 C 240.480 294.705,240.959 295.142,241.090 295.557 C 241.222 295.972,241.497 296.311,241.702 296.311 C 241.906 296.311,242.433 296.670,242.871 297.109 C 243.310 297.547,243.572 297.906,243.453 297.906 C 243.335 297.906,243.696 298.400,244.255 299.003 C 244.814 299.606,245.405 300.100,245.567 300.100 C 246.006 300.100,247.657 301.832,247.657 302.293 C 247.657 302.512,248.027 302.692,248.478 302.692 C 248.930 302.692,249.210 302.837,249.100 303.015 C 248.863 303.398,250.983 305.484,251.609 305.484 C 251.848 305.484,252.044 305.667,252.044 305.891 C 252.044 306.398,256.345 310.668,256.856 310.668 C 257.061 310.668,257.228 310.937,257.228 311.266 C 257.228 311.595,257.485 311.864,257.800 311.864 C 258.114 311.864,258.485 312.223,258.624 312.662 C 258.763 313.101,259.134 313.460,259.449 313.460 C 259.763 313.460,260.020 313.651,260.020 313.884 C 260.020 314.118,260.558 314.762,261.216 315.315 C 261.874 315.869,262.413 316.586,262.413 316.908 C 262.413 317.231,262.573 317.396,262.769 317.274 C 263.162 317.032,266.800 320.445,266.800 321.055 C 266.800 321.265,267.024 321.441,267.298 321.447 C 267.572 321.453,268.963 322.619,270.389 324.038 C 271.815 325.457,273.116 326.618,273.280 326.619 C 273.445 326.620,273.579 326.804,273.579 327.029 C 273.579 327.394,275.338 329.157,277.866 331.327 C 278.360 331.751,278.764 332.306,278.764 332.562 C 278.764 332.817,279.064 333.141,279.431 333.282 C 280.285 333.610,281.786 335.102,281.655 335.494 C 281.600 335.658,281.690 335.757,281.854 335.713 C 282.019 335.669,283.299 336.746,284.699 338.106 C 286.099 339.466,287.430 340.578,287.657 340.578 C 287.884 340.578,287.960 340.687,287.827 340.820 C 287.569 341.078,288.399 342.154,288.734 341.995 C 288.843 341.944,289.247 342.232,289.631 342.636 C 290.015 343.039,290.257 343.370,290.169 343.370 C 290.081 343.370,290.512 343.908,291.127 344.566 C 291.741 345.224,292.367 345.763,292.516 345.763 C 292.666 345.763,293.378 346.346,294.098 347.059 C 294.818 347.772,296.147 349.049,297.050 349.897 C 297.954 350.745,298.595 351.598,298.476 351.791 C 298.356 351.985,298.536 352.144,298.876 352.144 C 299.216 352.144,299.719 352.502,299.993 352.941 C 300.267 353.380,300.717 353.739,300.993 353.739 C 301.269 353.739,301.496 354.128,301.496 354.603 C 301.496 355.078,301.600 355.362,301.728 355.234 C 301.856 355.106,302.286 355.301,302.683 355.666 C 303.081 356.032,303.838 356.690,304.367 357.129 C 304.895 357.567,305.330 358.016,305.332 358.126 C 305.339 358.433,307.336 360.518,307.623 360.518 C 308.005 360.518,309.472 362.063,309.472 362.466 C 309.472 362.660,309.836 362.913,310.281 363.030 C 310.726 363.146,311.040 363.473,310.979 363.756 C 310.917 364.039,311.051 364.279,311.276 364.289 C 311.501 364.299,311.949 364.534,312.273 364.812 C 314.388 366.626,315.055 367.306,315.055 367.651 C 315.055 367.866,315.414 368.156,315.852 368.295 C 316.291 368.434,316.650 368.714,316.650 368.917 C 316.650 369.305,317.568 370.225,321.203 373.479 C 322.428 374.575,323.430 375.607,323.430 375.772 C 323.430 376.174,324.947 377.673,325.324 377.643 C 325.489 377.631,325.713 377.945,325.823 378.341 C 325.932 378.738,326.216 379.063,326.454 379.063 C 327.051 379.063,329.634 381.378,330.185 382.406 C 330.433 382.871,330.807 383.250,331.015 383.250 C 331.224 383.250,332.203 384.103,333.192 385.145 C 337.126 389.288,339.152 391.227,339.556 391.233 C 340.128 391.243,341.775 393.013,341.775 393.618 C 341.775 393.885,342.038 394.002,342.360 393.879 C 342.682 393.755,343.046 393.817,343.169 394.015 C 343.488 394.531,348.062 396.810,348.778 396.810 C 349.108 396.810,349.480 397.079,349.607 397.408 C 349.762 397.814,350.399 398.006,351.588 398.006 C 352.552 398.006,353.340 398.185,353.340 398.405 C 353.340 398.937,374.359 398.952,374.543 398.420 C 374.616 398.209,375.438 397.985,376.370 397.922 C 377.333 397.856,378.065 397.605,378.065 397.340 C 378.066 397.083,378.649 396.746,379.362 396.590 C 380.075 396.434,381.083 395.974,381.602 395.567 C 382.122 395.160,382.705 394.924,382.898 395.044 C 383.092 395.164,383.250 394.982,383.250 394.640 C 383.250 394.298,383.493 394.018,383.790 394.018 C 384.087 394.018,384.797 393.614,385.367 393.121 C 385.937 392.627,387.148 391.595,388.057 390.828 C 390.240 388.984,390.396 388.827,392.024 386.839 C 392.792 385.902,393.636 384.912,393.899 384.639 C 394.163 384.366,394.293 384.057,394.189 383.953 C 394.084 383.848,394.272 383.536,394.607 383.258 C 394.941 382.981,395.214 382.526,395.214 382.247 C 395.214 381.968,395.484 381.637,395.813 381.511 C 396.142 381.385,396.411 380.960,396.411 380.567 C 396.411 380.174,396.770 379.629,397.208 379.355 C 397.723 379.033,398.006 378.425,398.006 377.640 C 398.006 376.931,398.172 376.526,398.405 376.670 C 398.624 376.806,398.813 376.861,398.824 376.793 C 398.835 376.725,398.945 375.862,399.067 374.875 C 399.190 373.888,399.450 373.021,399.645 372.948 C 400.151 372.758,400.107 350.548,399.601 350.548 C 399.382 350.548,399.202 350.050,399.202 349.441 C 399.202 348.831,398.902 347.904,398.535 347.381 C 398.168 346.857,398.071 346.553,398.319 346.707 C 398.943 347.092,397.989 345.290,397.097 344.398 C 396.720 344.021,396.411 343.366,396.411 342.943 C 396.411 342.520,396.156 342.173,395.844 342.173 C 395.533 342.173,395.163 341.650,395.022 341.010 C 394.882 340.371,394.509 339.748,394.193 339.627 C 393.877 339.506,393.619 339.196,393.619 338.938 C 393.619 338.680,392.453 337.308,391.027 335.889 C 389.601 334.470,388.435 333.150,388.435 332.956 C 388.435 332.761,388.178 332.602,387.863 332.602 C 387.549 332.602,387.174 332.230,387.029 331.775 C 386.885 331.319,386.679 331.035,386.571 331.142 C 386.362 331.351,383.250 328.191,383.250 327.770 C 383.250 327.633,382.623 327.094,381.857 326.572 C 381.091 326.050,380.463 325.399,380.461 325.125 C 380.460 324.850,380.089 324.626,379.637 324.626 C 379.157 324.626,378.925 324.449,379.079 324.200 C 379.224 323.966,378.966 323.676,378.505 323.556 C 378.044 323.435,377.667 323.182,377.667 322.994 C 377.667 322.550,372.880 317.846,372.428 317.846 C 372.239 317.846,372.084 317.577,372.084 317.248 C 372.084 316.919,371.897 316.650,371.669 316.650 C 371.044 316.650,367.877 313.377,368.029 312.888 C 368.102 312.654,368.039 312.586,367.889 312.736 C 367.738 312.886,366.216 311.585,364.505 309.845 C 362.795 308.104,361.210 306.680,360.984 306.680 C 360.757 306.680,360.457 306.318,360.317 305.877 C 360.177 305.435,359.896 305.176,359.692 305.302 C 359.489 305.428,359.322 305.367,359.322 305.166 C 359.322 304.966,358.689 304.193,357.915 303.448 C 357.140 302.703,355.463 301.062,354.187 299.801 C 352.911 298.539,351.679 297.507,351.449 297.507 C 351.012 297.507,350.369 296.347,350.495 295.783 C 350.535 295.602,350.413 295.550,350.223 295.667 C 349.826 295.913,346.560 292.897,346.560 292.285 C 346.560 292.061,346.381 291.988,346.161 292.124 C 345.941 292.260,345.582 291.901,345.364 291.326 C 345.121 290.688,344.787 290.392,344.505 290.566 C 344.218 290.743,344.152 290.676,344.331 290.388 C 344.496 290.120,344.312 289.812,343.894 289.657 C 342.892 289.287,341.391 287.840,341.383 287.238 C 341.379 286.964,341.206 286.740,340.998 286.740 C 340.436 286.740,338.584 284.928,338.584 284.377 C 338.584 284.115,338.404 284.013,338.183 284.149 C 337.962 284.286,337.673 284.117,337.542 283.774 C 337.410 283.431,337.065 283.151,336.774 283.151 C 336.483 283.151,336.131 282.792,335.992 282.353 C 335.853 281.914,335.482 281.555,335.168 281.555 C 334.853 281.555,334.596 281.286,334.596 280.957 C 334.596 280.628,334.422 280.359,334.210 280.359 C 333.710 280.359,327.629 274.272,327.736 273.878 C 327.780 273.714,327.682 273.621,327.517 273.673 C 327.353 273.724,326.349 272.916,325.287 271.878 C 324.225 270.840,323.206 269.990,323.021 269.990 C 322.837 269.990,322.575 269.640,322.439 269.213 C 322.304 268.785,321.843 268.325,321.415 268.189 C 320.988 268.053,320.638 267.762,320.638 267.542 C 320.638 267.050,319.603 265.973,319.362 266.215 C 319.266 266.311,318.661 265.690,318.018 264.834 C 317.375 263.979,316.091 262.771,315.163 262.148 C 314.236 261.526,313.473 260.909,313.468 260.776 C 313.450 260.280,311.539 258.484,311.292 258.731 C 311.151 258.872,310.932 258.592,310.805 258.108 C 310.679 257.624,310.308 257.228,309.981 257.228 C 309.607 257.228,309.475 256.998,309.624 256.609 C 309.754 256.269,309.707 256.086,309.518 256.202 C 309.330 256.319,308.260 255.431,307.141 254.229 C 306.023 253.027,304.988 252.044,304.843 252.044 C 304.451 252.044,302.692 250.070,302.692 249.630 C 302.692 249.422,302.442 249.252,302.136 249.252 C 301.831 249.252,301.478 248.983,301.351 248.654 C 301.225 248.325,300.847 248.056,300.511 248.056 C 300.175 248.056,299.900 247.781,299.900 247.445 C 299.900 247.109,299.631 246.731,299.302 246.605 C 298.973 246.479,298.704 246.125,298.704 245.820 C 298.704 245.514,298.503 245.264,298.258 245.264 C 298.013 245.264,297.116 244.567,296.264 243.716 C 295.413 242.864,294.716 241.967,294.716 241.722 C 294.716 241.477,294.454 241.276,294.134 241.276 C 293.419 241.276,290.329 238.393,290.329 237.725 C 290.329 237.459,290.185 237.330,290.010 237.438 C 289.457 237.780,286.326 234.202,286.586 233.524 C 286.717 233.184,286.984 233.005,287.180 233.127 C 287.377 233.248,287.537 233.092,287.537 232.779 C 287.537 232.467,287.896 231.755,288.335 231.197 C 288.774 230.640,289.133 229.898,289.133 229.548 C 289.133 229.199,289.412 228.913,289.754 228.913 C 290.096 228.913,290.278 228.755,290.159 228.561 C 290.039 228.368,290.330 227.715,290.805 227.111 C 291.280 226.507,291.716 225.569,291.774 225.027 C 291.832 224.485,292.168 223.722,292.521 223.331 C 292.874 222.941,293.192 222.247,293.226 221.790 C 293.261 221.332,293.520 220.869,293.803 220.761 C 294.086 220.652,294.317 220.109,294.317 219.554 C 294.317 218.999,294.651 218.210,295.060 217.801 C 295.469 217.393,295.925 216.406,296.075 215.608 C 296.225 214.810,296.519 214.158,296.728 214.158 C 296.937 214.158,297.109 213.882,297.109 213.545 C 297.109 213.209,297.364 212.536,297.676 212.050 C 297.987 211.564,298.335 210.556,298.448 209.810 C 298.561 209.064,298.864 208.323,299.121 208.164 C 299.378 208.005,299.682 207.041,299.797 206.022 C 299.912 205.003,300.189 204.056,300.414 203.917 C 300.664 203.762,300.697 203.866,300.499 204.187 C 300.312 204.489,300.333 204.612,300.549 204.479 C 300.754 204.352,300.967 203.667,301.021 202.957 C 301.075 202.248,301.396 201.464,301.734 201.217 C 302.073 200.970,302.316 200.595,302.274 200.384 C 302.233 200.173,302.235 199.910,302.279 199.801 C 302.323 199.691,302.434 199.063,302.526 198.405 C 302.935 195.486,303.150 194.606,303.414 194.769 C 303.570 194.865,303.753 193.931,303.821 192.693 C 303.889 191.454,304.079 190.349,304.245 190.236 C 304.885 189.797,305.441 187.444,305.566 184.646 C 305.580 184.317,305.743 183.856,305.926 183.621 C 306.110 183.386,306.377 181.950,306.520 180.430 C 306.662 178.910,306.958 177.443,307.177 177.168 C 307.456 176.819,307.412 176.666,307.028 176.658 C 306.632 176.649,306.660 176.541,307.131 176.266 C 307.660 175.957,307.793 175.093,307.849 171.608 C 307.891 168.977,308.102 167.103,308.395 166.739 C 308.706 166.355,308.716 166.242,308.425 166.417 C 308.141 166.587,307.976 166.322,307.976 165.696 C 307.976 165.151,308.127 164.706,308.313 164.706 C 308.498 164.706,308.546 164.437,308.419 164.108 C 308.293 163.779,308.389 163.509,308.631 163.509 C 308.874 163.509,309.073 163.230,309.073 162.888 C 309.073 162.546,308.886 162.381,308.658 162.522 C 308.227 162.789,308.241 162.670,309.100 158.779 C 309.458 157.160,309.460 156.571,309.111 156.355 C 308.775 156.147,308.737 154.971,308.970 152.054 C 309.225 148.869,309.177 147.865,308.735 147.200 C 308.366 146.645,308.329 146.361,308.625 146.361 C 309.278 146.361,309.172 145.345,308.458 144.752 C 308.031 144.398,307.970 144.114,308.258 143.825 C 308.752 143.331,308.818 142.636,308.342 142.930 C 308.160 143.042,308.005 142.470,307.999 141.657 C 307.954 136.068,307.717 132.490,307.348 131.805 C 307.112 131.366,306.890 130.648,306.855 130.209 C 306.542 126.314,306.180 123.812,305.903 123.638 C 305.720 123.524,305.456 122.353,305.316 121.037 C 305.175 119.721,305.036 118.430,305.006 118.168 C 304.976 117.906,304.757 117.726,304.520 117.769 C 304.261 117.815,304.008 116.790,303.888 115.214 C 303.779 113.767,303.473 112.323,303.210 112.007 C 302.947 111.690,302.663 110.766,302.580 109.954 C 302.496 109.141,302.320 108.369,302.189 108.237 C 302.057 108.106,302.057 107.717,302.189 107.373 C 302.344 106.968,302.269 106.847,301.974 107.030 C 301.484 107.332,301.130 106.332,300.984 104.239 C 300.928 103.431,300.722 103.061,300.399 103.185 C 300.086 103.304,299.900 103.021,299.900 102.422 C 299.900 101.319,298.522 97.227,297.728 95.970 C 297.430 95.500,297.065 94.531,296.917 93.819 C 296.768 93.106,296.481 92.522,296.279 92.522 C 296.077 92.522,295.912 92.087,295.912 91.554 C 295.912 91.021,295.643 90.316,295.314 89.987 C 294.985 89.658,294.716 89.039,294.716 88.612 C 294.716 88.184,294.438 87.604,294.099 87.323 C 293.761 87.042,293.579 86.562,293.696 86.256 C 293.813 85.951,293.732 85.811,293.515 85.945 C 293.294 86.081,293.121 85.739,293.121 85.168 C 293.121 84.562,292.895 84.148,292.566 84.148 C 292.260 84.148,291.893 83.677,291.748 83.102 C 291.604 82.528,291.226 81.797,290.908 81.479 C 290.589 81.160,290.329 80.548,290.329 80.119 C 290.329 79.689,290.060 79.234,289.731 79.107 C 289.402 78.981,289.133 78.611,289.133 78.284 C 289.133 77.958,288.877 77.214,288.566 76.632 C 288.254 76.050,287.896 75.248,287.771 74.850 C 287.646 74.452,287.380 74.228,287.180 74.351 C 286.981 74.474,286.630 74.037,286.401 73.379 C 286.171 72.722,285.795 72.183,285.564 72.183 C 285.333 72.183,285.145 71.825,285.145 71.386 C 285.145 70.947,284.965 70.588,284.746 70.588 C 284.526 70.588,284.347 70.396,284.347 70.161 C 284.347 69.926,284.123 69.484,283.848 69.178 C 282.574 67.757,282.353 67.376,282.353 66.605 C 282.353 66.150,282.084 65.674,281.755 65.548 C 281.426 65.422,281.157 65.112,281.157 64.859 C 281.157 64.606,280.791 64.171,280.343 63.891 C 279.896 63.612,279.625 63.230,279.741 63.043 C 279.856 62.856,279.594 62.610,279.158 62.495 C 278.686 62.372,278.365 61.951,278.365 61.456 C 278.365 60.999,278.006 60.401,277.567 60.127 C 277.129 59.853,276.770 59.403,276.770 59.126 C 276.770 58.850,276.500 58.624,276.171 58.624 C 275.842 58.624,275.573 58.355,275.573 58.026 C 275.573 57.697,275.413 57.428,275.218 57.428 C 275.022 57.428,274.750 56.979,274.612 56.431 C 274.474 55.882,274.181 55.434,273.961 55.434 C 273.740 55.434,273.389 54.985,273.180 54.437 C 272.972 53.888,272.528 53.440,272.193 53.440 C 271.851 53.440,271.585 53.091,271.585 52.642 C 271.585 52.199,271.319 51.844,270.987 51.844 C 270.658 51.844,270.389 51.575,270.389 51.246 C 270.389 50.917,270.141 50.648,269.837 50.648 C 269.534 50.648,269.190 50.284,269.074 49.839 C 268.958 49.394,268.623 49.080,268.329 49.141 C 268.036 49.202,267.840 49.033,267.892 48.766 C 267.945 48.498,267.626 48.085,267.183 47.848 C 266.741 47.611,266.476 47.260,266.595 47.068 C 266.714 46.875,266.450 46.603,266.008 46.462 C 265.566 46.322,265.204 46.039,265.204 45.833 C 265.204 45.404,261.712 41.874,261.288 41.874 C 261.133 41.874,260.670 41.426,260.258 40.877 C 259.846 40.329,259.265 39.880,258.967 39.880 C 258.669 39.880,258.425 39.623,258.425 39.309 C 258.425 38.995,258.063 38.623,257.621 38.483 C 257.179 38.342,256.921 38.061,257.047 37.858 C 257.172 37.654,257.071 37.488,256.822 37.488 C 256.572 37.488,255.709 36.808,254.904 35.977 C 254.099 35.147,252.767 34.055,251.944 33.552 C 251.122 33.049,250.449 32.472,250.449 32.271 C 250.449 32.069,250.190 31.904,249.874 31.904 C 249.558 31.904,249.171 31.697,249.015 31.444 C 248.826 31.139,248.907 31.093,249.252 31.306 C 249.598 31.520,249.678 31.473,249.490 31.168 C 249.333 30.915,248.863 30.708,248.445 30.708 C 248.027 30.708,247.493 30.349,247.258 29.910 C 247.023 29.472,246.568 29.113,246.247 29.113 C 245.926 29.113,245.663 28.833,245.663 28.491 C 245.663 28.149,245.484 27.980,245.264 28.116 C 245.045 28.251,244.865 28.172,244.865 27.940 C 244.865 27.708,244.596 27.517,244.267 27.517 C 243.938 27.517,243.669 27.356,243.669 27.158 C 243.669 26.960,243.175 26.611,242.572 26.383 C 241.969 26.155,241.027 25.583,240.479 25.113 C 239.930 24.643,239.751 24.389,240.080 24.550 C 240.529 24.770,240.569 24.724,240.239 24.365 C 239.997 24.103,239.419 23.859,238.953 23.824 C 238.488 23.789,238.024 23.546,237.924 23.284 C 237.823 23.021,237.190 22.686,236.517 22.538 C 235.845 22.391,235.294 22.094,235.294 21.879 C 235.294 21.664,235.501 21.616,235.755 21.773 C 236.040 21.949,236.107 21.882,235.930 21.597 C 235.774 21.344,235.312 21.137,234.904 21.137 C 233.832 21.137,232.874 20.706,233.106 20.330 C 233.217 20.151,232.782 19.890,232.140 19.749 C 231.499 19.608,230.875 19.234,230.754 18.919 C 230.633 18.603,230.079 18.345,229.524 18.345 C 228.969 18.345,228.514 18.203,228.514 18.029 C 228.514 17.673,224.485 15.553,223.808 15.553 C 223.567 15.553,223.226 15.329,223.051 15.055 C 222.875 14.781,222.309 14.319,221.793 14.028 C 221.276 13.738,220.973 13.693,221.118 13.929 C 221.264 14.164,221.193 14.357,220.961 14.357 C 220.728 14.357,220.538 14.088,220.538 13.759 C 220.538 13.405,220.172 13.160,219.641 13.159 C 219.148 13.158,218.156 12.799,217.438 12.361 C 216.720 11.924,215.867 11.565,215.544 11.565 C 215.220 11.565,214.955 11.400,214.955 11.198 C 214.955 10.996,214.372 10.707,213.659 10.556 C 212.946 10.404,212.018 9.986,211.596 9.627 C 210.991 9.111,210.902 9.099,211.175 9.571 C 211.478 10.099,211.434 10.101,210.800 9.586 C 210.405 9.264,209.608 8.942,209.029 8.870 C 208.450 8.797,207.777 8.477,207.533 8.157 C 207.290 7.838,206.514 7.577,205.810 7.577 C 205.106 7.577,204.285 7.333,203.986 7.034 C 203.687 6.735,202.525 6.369,201.403 6.220 C 200.282 6.071,199.277 5.722,199.171 5.445 C 199.064 5.167,198.238 4.896,197.334 4.843 C 196.431 4.790,195.320 4.486,194.866 4.168 C 194.412 3.850,193.530 3.589,192.906 3.589 C 192.282 3.589,191.425 3.403,191.001 3.176 C 190.457 2.885,190.229 2.892,190.229 3.200 C 190.229 3.440,190.047 3.524,189.824 3.386 C 189.601 3.248,189.503 2.998,189.607 2.831 C 189.711 2.663,189.579 2.509,189.314 2.489 C 189.050 2.469,187.936 2.335,186.839 2.191 C 185.743 2.047,184.545 1.906,184.177 1.876 C 183.809 1.847,183.589 1.693,183.687 1.534 C 183.785 1.375,183.548 1.241,183.159 1.236 C 180.828 1.208,176.670 0.637,176.670 0.345 C 176.670 -0.126,130.513 -0.105,130.342 0.367 M160.407 63.668 C 168.297 63.961,167.896 63.927,167.896 64.316 C 167.896 64.502,168.076 64.542,168.295 64.407 C 168.514 64.271,168.694 64.326,168.694 64.528 C 168.694 64.730,169.098 64.858,169.591 64.813 C 171.255 64.662,174.876 65.214,174.809 65.610 C 174.773 65.825,175.490 66.054,176.404 66.117 C 179.001 66.296,179.445 66.409,180.243 67.092 C 180.653 67.443,181.089 67.632,181.210 67.510 C 181.331 67.389,181.907 67.602,182.489 67.983 C 183.206 68.453,183.458 68.503,183.270 68.137 C 183.103 67.814,183.204 67.842,183.520 68.207 C 183.810 68.542,184.766 68.873,185.643 68.943 C 187.528 69.093,187.944 69.294,187.582 69.880 C 187.428 70.128,187.499 70.199,187.747 70.045 C 187.985 69.898,188.293 69.960,188.431 70.183 C 188.568 70.406,189.030 70.588,189.455 70.588 C 189.881 70.588,190.229 70.778,190.229 71.011 C 190.229 71.243,190.396 71.330,190.601 71.203 C 190.805 71.077,191.085 71.156,191.222 71.379 C 191.360 71.602,191.827 71.785,192.259 71.785 C 192.692 71.785,193.134 72.015,193.242 72.297 C 193.351 72.578,193.908 72.848,194.482 72.895 C 195.056 72.943,195.725 73.229,195.968 73.532 C 196.212 73.834,196.904 74.196,197.507 74.337 C 198.111 74.477,198.604 74.857,198.604 75.182 C 198.604 75.572,199.010 75.773,199.801 75.773 C 200.459 75.773,200.997 75.957,200.997 76.181 C 200.997 76.406,201.450 76.762,202.004 76.973 C 202.558 77.184,203.116 77.628,203.243 77.960 C 203.371 78.292,203.815 78.564,204.230 78.564 C 204.648 78.564,204.985 78.842,204.985 79.186 C 204.985 79.528,205.166 79.696,205.387 79.560 C 205.608 79.423,205.890 79.576,206.014 79.899 C 206.138 80.222,206.630 80.588,207.108 80.713 C 207.585 80.837,208.619 81.526,209.405 82.244 C 210.191 82.962,211.985 84.536,213.393 85.743 C 217.072 88.896,218.945 90.793,218.660 91.078 C 218.523 91.214,218.711 91.326,219.076 91.326 C 219.442 91.326,219.741 91.530,219.741 91.779 C 219.741 92.028,220.145 92.622,220.638 93.100 C 221.132 93.577,222.103 94.630,222.797 95.439 C 223.492 96.248,224.254 96.909,224.492 96.909 C 224.730 96.909,224.925 97.142,224.925 97.426 C 224.925 97.951,225.754 99.186,227.019 100.546 C 227.403 100.958,227.717 101.576,227.717 101.918 C 227.717 102.260,227.887 102.434,228.096 102.305 C 228.304 102.177,228.690 102.480,228.953 102.980 C 229.216 103.480,229.539 103.978,229.671 104.088 C 230.188 104.518,232.130 108.475,231.828 108.481 C 231.650 108.484,231.719 108.623,231.980 108.789 C 232.732 109.267,234.348 111.815,234.642 112.988 C 234.790 113.576,235.078 114.058,235.284 114.058 C 235.489 114.058,235.775 114.686,235.919 115.454 C 236.063 116.221,236.333 116.849,236.519 116.849 C 236.705 116.849,237.072 117.567,237.335 118.445 C 237.598 119.322,237.964 120.040,238.149 120.040 C 238.333 120.040,238.485 120.634,238.485 121.359 C 238.485 122.085,238.748 123.027,239.070 123.453 C 239.392 123.879,239.661 124.591,239.668 125.036 C 239.675 125.481,239.961 126.244,240.302 126.731 C 241.000 127.727,241.250 128.729,241.343 130.891 C 241.377 131.704,241.547 132.283,241.720 132.176 C 242.113 131.933,242.476 133.904,242.587 136.888 C 242.634 138.148,242.858 139.180,243.085 139.181 C 243.312 139.182,243.513 139.497,243.532 139.880 C 243.550 140.264,243.705 142.552,243.874 144.965 C 244.440 153.001,244.063 167.960,243.288 168.221 C 243.084 168.290,243.015 168.604,243.136 168.919 C 243.257 169.234,243.202 169.492,243.014 169.493 C 242.826 169.493,242.624 170.466,242.565 171.655 C 242.506 172.843,242.192 174.452,241.867 175.230 C 241.542 176.008,241.276 177.265,241.276 178.025 C 241.276 178.784,240.996 179.685,240.654 180.027 C 240.311 180.370,239.925 181.325,239.795 182.149 C 239.666 182.974,239.318 183.793,239.022 183.968 C 238.727 184.143,238.485 184.780,238.485 185.384 C 238.485 185.987,238.260 186.722,237.986 187.018 C 237.581 187.454,237.599 187.494,238.086 187.228 C 238.519 186.992,238.492 187.121,237.986 187.700 C 237.602 188.138,237.288 188.757,237.288 189.075 C 237.288 189.393,237.043 190.007,236.744 190.440 C 236.444 190.872,236.062 191.667,235.893 192.205 C 235.725 192.743,235.342 193.429,235.042 193.729 C 234.742 194.029,234.497 194.691,234.497 195.200 C 234.497 195.709,234.225 196.230,233.892 196.358 C 233.560 196.485,233.116 197.043,232.905 197.597 C 232.695 198.151,232.338 198.604,232.114 198.604 C 231.889 198.604,231.705 199.143,231.705 199.801 C 231.705 200.598,231.505 200.997,231.107 200.997 C 230.778 200.997,230.508 201.276,230.508 201.616 C 230.508 202.375,228.728 205.066,228.426 204.763 C 228.306 204.643,228.012 205.107,227.773 205.792 C 227.529 206.493,227.155 206.926,226.920 206.780 C 226.689 206.638,226.550 206.679,226.610 206.872 C 226.746 207.305,224.843 210.163,224.417 210.167 C 224.247 210.168,223.933 210.629,223.720 211.190 C 223.506 211.752,223.179 212.117,222.992 212.002 C 222.805 211.886,222.416 212.234,222.126 212.775 C 221.837 213.316,221.451 213.759,221.269 213.759 C 221.086 213.759,220.937 213.929,220.937 214.137 C 220.937 214.345,220.459 215.018,219.875 215.632 C 219.291 216.247,218.942 216.525,219.101 216.251 C 219.259 215.977,219.306 215.753,219.206 215.753 C 219.105 215.753,218.651 216.381,218.198 217.149 C 217.745 217.916,217.089 218.544,216.740 218.544 C 216.390 218.544,216.186 218.679,216.286 218.843 C 216.385 219.008,216.216 219.374,215.910 219.657 C 215.604 219.940,215.354 220.074,215.354 219.955 C 215.354 219.836,214.706 220.455,213.915 221.332 C 213.123 222.208,212.316 222.826,212.120 222.705 C 211.925 222.584,211.765 222.765,211.765 223.107 C 211.765 223.449,211.504 223.729,211.186 223.729 C 210.868 223.729,210.425 224.043,210.201 224.427 C 209.978 224.811,209.789 224.981,209.783 224.805 C 209.776 224.629,209.357 224.932,208.852 225.477 C 208.346 226.022,207.684 226.525,207.380 226.594 C 207.075 226.663,206.358 227.168,205.785 227.717 C 204.415 229.029,202.325 230.508,201.839 230.508 C 201.627 230.508,201.207 230.733,200.908 231.007 C 199.974 231.861,197.747 232.930,198.017 232.395 C 198.153 232.125,198.007 232.218,197.692 232.602 C 197.378 232.986,196.935 233.300,196.709 233.300 C 196.482 233.300,196.202 233.547,196.086 233.848 C 195.971 234.149,195.234 234.516,194.449 234.664 C 193.663 234.811,193.021 235.083,193.021 235.269 C 193.021 235.609,191.314 236.229,190.262 236.272 C 189.951 236.284,189.622 236.518,189.531 236.791 C 189.440 237.065,189.040 237.288,188.644 237.288 C 188.247 237.288,187.819 237.557,187.692 237.886 C 187.566 238.215,187.000 238.485,186.433 238.485 C 185.867 238.485,184.918 238.736,184.325 239.043 C 183.731 239.350,182.538 239.713,181.672 239.851 C 180.807 239.988,179.807 240.365,179.450 240.688 C 179.093 241.012,178.366 241.278,177.835 241.281 C 176.038 241.289,173.893 241.775,174.109 242.125 C 174.227 242.316,173.730 242.489,173.005 242.510 C 172.279 242.530,170.967 242.627,170.090 242.724 C 169.212 242.821,168.194 242.933,167.826 242.972 C 167.458 243.011,167.233 243.164,167.325 243.313 C 167.417 243.462,167.090 243.587,166.598 243.589 C 166.105 243.592,165.165 243.696,164.506 243.820 C 160.323 244.606,141.807 244.002,140.749 243.045 C 140.284 242.624,139.973 242.561,139.793 242.852 C 139.646 243.089,139.333 243.164,139.097 243.018 C 138.686 242.764,137.486 242.615,135.071 242.518 C 134.455 242.493,134.052 242.310,134.174 242.111 C 134.297 241.912,134.059 241.838,133.645 241.946 C 133.231 242.055,132.771 241.948,132.624 241.710 C 132.476 241.471,131.595 241.276,130.664 241.276 C 129.734 241.276,128.758 241.061,128.495 240.798 C 128.231 240.534,128.016 240.467,128.016 240.647 C 128.016 240.827,127.784 240.783,127.501 240.548 C 127.218 240.313,126.369 240.012,125.614 239.879 C 124.859 239.746,123.955 239.378,123.605 239.061 C 123.255 238.744,122.421 238.485,121.752 238.485 C 121.083 238.485,120.328 238.233,120.072 237.925 C 119.817 237.618,119.145 237.250,118.580 237.108 C 118.014 236.966,117.290 236.590,116.972 236.271 C 116.654 235.953,116.092 235.687,115.724 235.680 C 115.356 235.673,114.706 235.404,114.281 235.082 C 113.855 234.760,113.204 234.497,112.834 234.497 C 112.464 234.497,111.938 234.227,111.665 233.898 C 111.392 233.569,110.812 233.300,110.377 233.300 C 109.893 233.300,109.663 233.099,109.784 232.783 C 109.904 232.472,109.653 232.242,109.153 232.204 C 108.697 232.170,107.826 231.774,107.219 231.325 C 106.611 230.876,106.000 230.508,105.862 230.508 C 105.723 230.508,105.198 230.194,104.695 229.811 C 104.193 229.427,103.372 228.843,102.872 228.514 C 102.371 228.185,101.672 227.647,101.318 227.318 C 100.964 226.989,100.186 226.465,99.589 226.154 C 98.993 225.843,98.504 225.355,98.504 225.070 C 98.504 224.773,98.249 224.650,97.906 224.781 C 97.527 224.926,97.308 224.776,97.308 224.370 C 97.308 223.995,96.977 223.729,96.510 223.729 C 96.067 223.729,95.713 223.463,95.713 223.131 C 95.713 222.802,95.553 222.532,95.357 222.532 C 95.162 222.532,94.100 221.635,92.997 220.538 C 91.895 219.442,90.799 218.544,90.561 218.544 C 90.324 218.544,90.174 218.408,90.229 218.242 C 90.284 218.076,89.432 217.036,88.335 215.932 C 87.238 214.828,86.002 213.439,85.587 212.845 C 85.173 212.251,84.589 211.765,84.291 211.765 C 83.980 211.765,83.749 211.344,83.749 210.780 C 83.749 210.108,83.575 209.863,83.200 210.006 C 82.852 210.140,82.557 209.844,82.395 209.196 C 82.254 208.635,81.958 208.175,81.737 208.175 C 81.517 208.175,81.166 207.727,80.957 207.178 C 80.749 206.630,80.394 206.181,80.169 206.181 C 79.945 206.181,79.761 205.912,79.761 205.583 C 79.761 205.254,79.562 204.985,79.319 204.985 C 79.066 204.985,78.990 204.693,79.141 204.299 C 79.286 203.922,79.285 203.733,79.139 203.878 C 78.776 204.242,76.969 202.034,76.969 201.226 C 76.969 200.867,76.700 200.470,76.371 200.344 C 76.042 200.217,75.773 199.857,75.773 199.542 C 75.773 199.227,75.420 198.591,74.989 198.128 C 74.558 197.666,74.296 197.141,74.406 196.962 C 74.517 196.783,74.241 196.408,73.794 196.128 C 73.280 195.807,72.981 195.196,72.981 194.464 C 72.981 193.829,72.715 193.109,72.390 192.866 C 72.065 192.622,71.720 191.974,71.622 191.426 C 71.525 190.877,71.411 190.339,71.368 190.229 C 71.326 190.120,71.313 189.895,71.339 189.731 C 71.365 189.566,71.176 189.477,70.920 189.531 C 70.664 189.586,70.287 188.958,70.083 188.136 C 69.878 187.313,69.550 186.640,69.352 186.640 C 69.155 186.640,68.993 186.132,68.993 185.510 C 68.993 184.889,68.858 184.246,68.694 184.081 C 68.529 183.917,68.380 183.662,68.361 183.516 C 68.343 183.370,68.114 182.732,67.852 182.098 C 67.590 181.465,67.467 180.854,67.580 180.742 C 67.692 180.629,67.525 180.340,67.209 180.099 C 66.892 179.858,66.451 178.508,66.229 177.099 C 66.006 175.690,65.676 174.434,65.495 174.307 C 65.195 174.099,64.999 172.549,64.857 169.292 C 64.829 168.634,64.659 167.988,64.480 167.857 C 63.347 167.024,63.117 140.702,64.235 139.828 C 64.606 139.538,64.852 138.407,64.938 136.590 C 65.010 135.055,65.291 133.529,65.562 133.200 C 65.833 132.871,66.096 131.884,66.146 131.007 C 66.244 129.286,66.919 127.218,67.382 127.218 C 67.539 127.218,67.691 126.583,67.720 125.806 C 67.750 125.029,68.048 124.118,68.383 123.783 C 68.719 123.448,68.993 122.725,68.993 122.176 C 68.993 121.628,69.262 120.910,69.591 120.581 C 69.920 120.252,70.189 119.468,70.189 118.838 C 70.189 118.208,70.503 117.458,70.887 117.171 C 71.271 116.885,71.643 116.201,71.714 115.653 C 71.785 115.105,72.099 114.457,72.412 114.213 C 72.725 113.970,72.981 113.381,72.981 112.905 C 72.981 112.428,73.250 111.935,73.579 111.809 C 73.908 111.683,74.177 111.240,74.177 110.825 C 74.177 110.410,74.536 109.711,74.975 109.272 C 75.414 108.833,75.773 108.205,75.773 107.876 C 75.773 107.547,75.940 107.278,76.145 107.278 C 76.349 107.278,76.644 106.878,76.799 106.389 C 77.139 105.316,78.571 103.214,79.262 102.772 C 79.536 102.596,79.761 102.193,79.761 101.875 C 79.761 101.556,79.945 101.296,80.169 101.296 C 80.394 101.296,80.749 100.847,80.957 100.299 C 81.166 99.751,81.508 99.302,81.718 99.302 C 81.928 99.302,82.222 98.917,82.371 98.447 C 82.520 97.977,83.161 97.085,83.794 96.466 C 84.427 95.847,84.945 95.238,84.945 95.113 C 84.945 94.729,88.583 91.326,88.993 91.326 C 89.205 91.326,89.284 91.172,89.167 90.983 C 88.940 90.615,91.944 87.737,92.555 87.737 C 92.756 87.737,92.921 87.538,92.921 87.294 C 92.921 86.585,94.651 84.960,95.414 84.952 C 95.798 84.948,96.067 84.778,96.012 84.574 C 95.869 84.040,98.546 82.132,99.024 82.428 C 99.245 82.564,99.303 82.478,99.153 82.235 C 99.002 81.991,99.286 81.582,99.789 81.318 C 100.289 81.055,100.841 80.598,101.017 80.301 C 101.192 80.004,101.686 79.761,102.114 79.761 C 102.541 79.761,102.891 79.492,102.891 79.163 C 102.891 78.833,103.161 78.564,103.490 78.564 C 103.819 78.564,104.088 78.385,104.088 78.166 C 104.088 77.946,104.368 77.767,104.709 77.767 C 105.051 77.767,105.220 77.587,105.085 77.368 C 104.949 77.149,105.199 76.969,105.640 76.969 C 106.080 76.969,106.601 76.684,106.796 76.335 C 106.991 75.986,107.314 75.715,107.513 75.732 C 108.141 75.786,109.272 75.333,109.272 75.028 C 109.272 74.868,109.900 74.509,110.668 74.232 C 111.436 73.954,112.064 73.559,112.064 73.354 C 112.064 73.149,112.198 73.019,112.363 73.065 C 112.681 73.154,114.908 72.199,117.303 70.947 C 118.100 70.531,118.965 70.189,119.225 70.189 C 119.485 70.189,119.967 69.920,120.296 69.591 C 120.625 69.262,121.426 68.993,122.075 68.993 C 122.724 68.993,123.350 68.746,123.466 68.444 C 123.594 68.110,124.603 67.789,126.034 67.628 C 127.330 67.481,128.495 67.192,128.623 66.985 C 128.755 66.771,128.545 66.721,128.136 66.868 C 127.741 67.010,127.547 66.984,127.704 66.809 C 127.999 66.484,128.862 66.341,131.078 66.252 C 131.775 66.224,132.607 65.940,132.927 65.621 C 133.289 65.258,134.613 64.973,136.445 64.861 C 138.060 64.763,139.427 64.666,139.482 64.645 C 139.536 64.623,139.696 64.622,139.836 64.640 C 139.976 64.659,140.206 64.487,140.347 64.259 C 140.498 64.014,143.197 63.761,146.924 63.642 C 150.400 63.530,153.336 63.348,153.447 63.236 C 153.559 63.124,153.800 63.125,153.982 63.237 C 154.164 63.350,157.055 63.544,160.407 63.668 " stroke="none" fill="#454040" fill-rule="evenodd"></path></g></svg>