<?xml version="1.0" encoding="iso-8859-1"?>
<!-- Generator: Adobe Illustrator 19.0.0, SVG Export Plug-In . SVG Version: 6.00 Build 0)  -->
<svg version="1.1" id="Capa_1" xmlns="http://www.w3.org/2000/svg" xmlns:xlink="http://www.w3.org/1999/xlink" x="0px" y="0px"
	 viewBox="0 0 512 512" style="enable-background:new 0 0 512 512;" xml:space="preserve">
<g>
	<g>
		<path d="M406,211c-21.441,0-38.432,0-60,0c-8.284,0-15,6.716-15,15s6.716,15,15,15h9.188L316,358.566L276.812,241H286
			c8.284,0,15-6.716,15-15s-6.716-15-15-15h-60c-8.284,0-15,6.716-15,15s6.716,15,15,15h9.188L196,358.566L156.812,241H166
			c8.284,0,15-6.716,15-15s-6.716-15-15-15c-21.523,0-38.535,0-60,0c-8.284,0-15,6.716-15,15s6.716,15,15,15h19.188l56.581,169.743
			C183.812,416.869,189.543,421,196,421c6.457,0,12.188-4.131,14.23-10.257L256,273.434l45.77,137.309
			C303.812,416.869,309.543,421,316,421c6.457,0,12.188-4.131,14.23-10.257L386.812,241H406c8.284,0,15-6.716,15-15
			S414.284,211,406,211z"/>
	</g>
</g>
<g>
	<g>
		<path d="M467,0H45C20.187,0,0,20.187,0,45v422c0,24.813,20.187,45,45,45h422c24.813,0,45-20.187,45-45V45
			C512,20.187,491.813,0,467,0z M30,45c0-8.271,6.729-15,15-15h286v90H30V45z M482,467c0,8.271-6.729,15-15,15H45
			c-8.271,0-15-6.729-15-15V150h452V467z M482,120H361V30h106c8.271,0,15,6.729,15,15V120z"/>
	</g>
</g>
<g>
	<g>
		<path d="M106,60H75c-8.284,0-15,6.716-15,15s6.716,15,15,15h31c8.284,0,15-6.716,15-15S114.284,60,106,60z"/>
	</g>
</g>
<g>
	<g>
		<path d="M196,60h-30c-8.284,0-15,6.716-15,15s6.716,15,15,15h30c8.284,0,15-6.716,15-15S204.284,60,196,60z"/>
	</g>
</g>
<g>
	<g>
		<path d="M286,60h-30c-8.284,0-15,6.716-15,15s6.716,15,15,15h30c8.284,0,15-6.716,15-15S294.284,60,286,60z"/>
	</g>
</g>
<g>
</g>
<g>
</g>
<g>
</g>
<g>
</g>
<g>
</g>
<g>
</g>
<g>
</g>
<g>
</g>
<g>
</g>
<g>
</g>
<g>
</g>
<g>
</g>
<g>
</g>
<g>
</g>
<g>
</g>
</svg>
