<?xml version="1.0" encoding="iso-8859-1"?>
<!-- Generator: Adobe Illustrator 19.0.0, SVG Export Plug-In . SVG Version: 6.00 Build 0)  -->
<svg version="1.1" id="Layer_1" xmlns="http://www.w3.org/2000/svg" xmlns:xlink="http://www.w3.org/1999/xlink" x="0px" y="0px"
	 viewBox="0 0 500 500" style="enable-background:new 0 0 500 500;" xml:space="preserve">
<circle style="fill:#90DFAA;" cx="250" cy="250" r="250"/>
<g>
	<path style="fill:#324A5E;" d="M144.8,250.6l10.7-34.5h14l10.6,34.5l11.9-34.5h14.5l-21,60.1h-10l-13.1-41.8l-13.1,41.8h-10
		l-21-60.1h14.5L144.8,250.6z"/>
	<path style="fill:#324A5E;" d="M232.3,250.6l10.7-34.5h14l10.6,34.5l11.9-34.5H294l-21,60.1h-10l-13-41.8l-13.1,41.8h-10l-21-60.1
		h14.5L232.3,250.6z"/>
	<path style="fill:#324A5E;" d="M319.9,250.6l10.7-34.5h14l10.6,34.5l11.9-34.5h14.5l-21,60.1h-10l-13.1-41.8l-13.1,41.8h-10
		l-21-60.1h14.5L319.9,250.6z"/>
</g>
<g>
	<path style="fill:#FFFFFF;" d="M137.6,182.6l1.1-2h46.5l-1,4.7c-1.2,5.9-2.2,12-3.1,18.2h23.4c1-6.8,2.3-13.5,3.9-19.9l0.7-3h81.8
		l0.7,3c1.6,6.4,2.8,13.1,3.9,19.9h23.4c-0.9-6.2-1.9-12.3-3.1-18.2l-1-4.7h46.5l1.1,2c3.8,6.7,7,13.7,9.5,21h24.4
		c-18.5-63.4-77-109.8-146.3-109.8s-127.8,46.4-146.3,109.8h24.4C130.6,196.3,133.8,189.3,137.6,182.6z M303.3,128.5
		c12.2,5.6,23.5,13,33.6,22.2l7.5,6.8h-36.1l-0.9-2.6c-2.7-7.6-5.8-14.7-9.1-21l-5.2-10L303.3,128.5z M218.8,152
		c9.6-22,21.3-35.2,31.2-35.2s21.6,13.1,31.2,35.2l2.4,5.5h-67.2L218.8,152z M163.1,150.7c10.1-9.2,21.4-16.6,33.6-22.2l10.3-4.7
		l-5.2,10c-3.3,6.4-6.4,13.5-9.1,21.1l-0.9,2.6h-36.1L163.1,150.7z"/>
	<path style="fill:#FFFFFF;" d="M362.4,309.6l-1.1,2h-46.5l1-4.7c1.2-5.9,2.2-12.1,3.1-18.2h-23.4c-1,6.8-2.3,13.5-3.9,19.9l-0.7,3
		h-81.8l-0.7-3c-1.6-6.4-2.8-13.1-3.9-19.9h-23.4c0.9,6.2,1.9,12.3,3.1,18.2l1,4.7h-46.5l-1.1-2c-3.8-6.7-7-13.7-9.5-21h-24.4
		c18.5,63.4,77,109.8,146.3,109.8S377.8,352,396.3,288.6h-24.4C369.4,295.9,366.2,302.9,362.4,309.6z M196.7,363.7
		c-12.2-5.6-23.5-13-33.6-22.2l-7.5-6.8h36.1l0.9,2.6c2.7,7.6,5.8,14.7,9.1,21.1l5.2,10L196.7,363.7z M281.2,340.2
		c-9.6,22-21.3,35.2-31.2,35.2c-9.9,0-21.6-13.1-31.2-35.2l-2.4-5.5h67.2L281.2,340.2z M336.9,341.5c-10.1,9.2-21.4,16.6-33.6,22.2
		l-10.3,4.7l5.2-10c3.3-6.4,6.4-13.5,9.1-21l0.9-2.6h36.1L336.9,341.5z"/>
</g>
<g>
</g>
<g>
</g>
<g>
</g>
<g>
</g>
<g>
</g>
<g>
</g>
<g>
</g>
<g>
</g>
<g>
</g>
<g>
</g>
<g>
</g>
<g>
</g>
<g>
</g>
<g>
</g>
<g>
</g>
</svg>
