<svg id="svg" version="1.1" width="400" height="400" xmlns="http://www.w3.org/2000/svg" xmlns:xlink="http://www.w3.org/1999/xlink" style="display: block;"><g id="svgg"><path id="path0" d="M40.116 75.200 C 39.952 75.827,39.570 76.000,38.353 76.000 C 37.067 76.000,36.800 76.137,36.800 76.800 C 36.800 77.420,36.533 77.600,35.614 77.600 C 34.838 77.600,34.280 77.876,34.000 78.400 C 33.765 78.840,33.375 79.200,33.133 79.200 C 32.562 79.200,29.200 82.562,29.200 83.133 C 29.200 83.375,28.840 83.765,28.400 84.000 C 27.876 84.280,27.600 84.838,27.600 85.614 C 27.600 86.533,27.420 86.800,26.800 86.800 C 26.137 86.800,26.000 87.067,26.000 88.353 C 26.000 89.570,25.827 89.952,25.200 90.116 C 24.428 90.318,24.400 90.662,24.400 100.000 C 24.400 109.338,24.428 109.682,25.200 109.884 C 25.827 110.048,26.000 110.430,26.000 111.647 C 26.000 112.933,26.137 113.200,26.800 113.200 C 27.422 113.200,27.600 113.467,27.600 114.397 C 27.600 115.160,27.890 115.774,28.400 116.093 C 28.840 116.368,29.200 116.909,29.200 117.296 C 29.200 117.683,29.470 118.000,29.800 118.000 C 30.130 118.000,30.400 118.276,30.400 118.613 C 30.400 118.949,30.715 119.343,31.100 119.486 C 31.485 119.630,32.035 120.074,32.323 120.474 C 32.610 120.873,33.015 121.200,33.223 121.200 C 33.430 121.200,33.960 121.560,34.400 122.000 C 34.840 122.440,35.560 122.800,36.000 122.800 C 36.440 122.800,36.800 123.051,36.800 123.357 C 36.800 123.995,37.650 124.400,38.990 124.400 C 39.498 124.400,40.018 124.670,40.145 125.000 C 40.495 125.914,359.505 125.914,359.855 125.000 C 359.982 124.670,360.502 124.400,361.010 124.400 C 362.350 124.400,363.200 123.995,363.200 123.357 C 363.200 123.051,363.492 122.800,363.848 122.800 C 364.757 122.800,367.968 120.705,367.985 120.100 C 367.993 119.825,368.287 119.600,368.637 119.600 C 368.988 119.600,369.369 119.240,369.484 118.800 C 369.599 118.360,369.897 117.993,370.147 117.985 C 370.717 117.967,372.800 114.719,372.800 113.848 C 372.800 113.492,373.051 113.200,373.357 113.200 C 373.995 113.200,374.400 112.350,374.400 111.010 C 374.400 110.502,374.670 109.982,375.000 109.855 C 375.900 109.510,375.900 90.490,375.000 90.145 C 374.670 90.018,374.400 89.498,374.400 88.990 C 374.400 87.650,373.995 86.800,373.357 86.800 C 373.051 86.800,372.800 86.440,372.800 86.000 C 372.800 85.560,372.440 84.840,372.000 84.400 C 371.560 83.960,371.200 83.430,371.200 83.223 C 371.200 83.015,370.873 82.610,370.474 82.323 C 370.074 82.035,369.630 81.485,369.486 81.100 C 369.343 80.715,368.949 80.400,368.613 80.400 C 368.276 80.400,368.000 80.130,368.000 79.800 C 368.000 79.470,367.683 79.200,367.296 79.200 C 366.909 79.200,366.368 78.840,366.093 78.400 C 365.774 77.890,365.160 77.600,364.397 77.600 C 363.467 77.600,363.200 77.422,363.200 76.800 C 363.200 76.137,362.933 76.000,361.647 76.000 C 360.430 76.000,360.048 75.827,359.884 75.200 C 359.553 73.934,40.447 73.934,40.116 75.200 M40.116 175.200 C 39.952 175.827,39.570 176.000,38.353 176.000 C 37.067 176.000,36.800 176.137,36.800 176.800 C 36.800 177.420,36.533 177.600,35.614 177.600 C 34.838 177.600,34.280 177.876,34.000 178.400 C 33.765 178.840,33.375 179.200,33.133 179.200 C 32.562 179.200,29.200 182.562,29.200 183.133 C 29.200 183.375,28.840 183.765,28.400 184.000 C 27.876 184.280,27.600 184.838,27.600 185.614 C 27.600 186.533,27.420 186.800,26.800 186.800 C 26.137 186.800,26.000 187.067,26.000 188.353 C 26.000 189.570,25.827 189.952,25.200 190.116 C 24.428 190.318,24.400 190.662,24.400 200.000 C 24.400 209.338,24.428 209.682,25.200 209.884 C 25.827 210.048,26.000 210.430,26.000 211.647 C 26.000 212.933,26.137 213.200,26.800 213.200 C 27.422 213.200,27.600 213.467,27.600 214.397 C 27.600 215.160,27.890 215.774,28.400 216.093 C 28.840 216.368,29.200 216.909,29.200 217.296 C 29.200 217.683,29.470 218.000,29.800 218.000 C 30.130 218.000,30.400 218.276,30.400 218.613 C 30.400 218.949,30.715 219.343,31.100 219.486 C 31.485 219.630,32.035 220.074,32.323 220.474 C 32.610 220.873,33.015 221.200,33.223 221.200 C 33.430 221.200,33.960 221.560,34.400 222.000 C 34.840 222.440,35.560 222.800,36.000 222.800 C 36.440 222.800,36.800 223.051,36.800 223.357 C 36.800 223.995,37.650 224.400,38.990 224.400 C 39.498 224.400,40.018 224.670,40.145 225.000 C 40.495 225.914,359.505 225.914,359.855 225.000 C 359.982 224.670,360.502 224.400,361.010 224.400 C 362.350 224.400,363.200 223.995,363.200 223.357 C 363.200 223.051,363.492 222.800,363.848 222.800 C 364.757 222.800,367.968 220.705,367.985 220.100 C 367.993 219.825,368.287 219.600,368.637 219.600 C 368.988 219.600,369.369 219.240,369.484 218.800 C 369.599 218.360,369.897 217.993,370.147 217.985 C 370.717 217.967,372.800 214.719,372.800 213.848 C 372.800 213.492,373.051 213.200,373.357 213.200 C 373.995 213.200,374.400 212.350,374.400 211.010 C 374.400 210.502,374.670 209.982,375.000 209.855 C 375.900 209.510,375.900 190.490,375.000 190.145 C 374.670 190.018,374.400 189.498,374.400 188.990 C 374.400 187.650,373.995 186.800,373.357 186.800 C 373.051 186.800,372.800 186.440,372.800 186.000 C 372.800 185.560,372.440 184.840,372.000 184.400 C 371.560 183.960,371.200 183.430,371.200 183.223 C 371.200 183.015,370.873 182.610,370.474 182.323 C 370.074 182.035,369.630 181.485,369.486 181.100 C 369.343 180.715,368.949 180.400,368.613 180.400 C 368.276 180.400,368.000 180.130,368.000 179.800 C 368.000 179.470,367.683 179.200,367.296 179.200 C 366.909 179.200,366.368 178.840,366.093 178.400 C 365.774 177.890,365.160 177.600,364.397 177.600 C 363.467 177.600,363.200 177.422,363.200 176.800 C 363.200 176.137,362.933 176.000,361.647 176.000 C 360.430 176.000,360.048 175.827,359.884 175.200 C 359.553 173.934,40.447 173.934,40.116 175.200 M40.116 275.200 C 39.952 275.827,39.570 276.000,38.353 276.000 C 37.067 276.000,36.800 276.137,36.800 276.800 C 36.800 277.420,36.533 277.600,35.614 277.600 C 34.838 277.600,34.280 277.876,34.000 278.400 C 33.765 278.840,33.375 279.200,33.133 279.200 C 32.562 279.200,29.200 282.562,29.200 283.133 C 29.200 283.375,28.840 283.765,28.400 284.000 C 27.876 284.280,27.600 284.838,27.600 285.614 C 27.600 286.533,27.420 286.800,26.800 286.800 C 26.137 286.800,26.000 287.067,26.000 288.353 C 26.000 289.570,25.827 289.952,25.200 290.116 C 24.428 290.318,24.400 290.662,24.400 300.000 C 24.400 309.338,24.428 309.682,25.200 309.884 C 25.827 310.048,26.000 310.430,26.000 311.647 C 26.000 312.933,26.137 313.200,26.800 313.200 C 27.422 313.200,27.600 313.467,27.600 314.397 C 27.600 315.160,27.890 315.774,28.400 316.093 C 28.840 316.368,29.200 316.909,29.200 317.296 C 29.200 317.683,29.470 318.000,29.800 318.000 C 30.130 318.000,30.400 318.276,30.400 318.613 C 30.400 318.949,30.715 319.343,31.100 319.486 C 31.485 319.630,32.035 320.074,32.323 320.474 C 32.610 320.873,33.015 321.200,33.223 321.200 C 33.430 321.200,33.960 321.560,34.400 322.000 C 34.840 322.440,35.560 322.800,36.000 322.800 C 36.440 322.800,36.800 323.051,36.800 323.357 C 36.800 323.995,37.650 324.400,38.990 324.400 C 39.498 324.400,40.018 324.670,40.145 325.000 C 40.495 325.914,359.505 325.914,359.855 325.000 C 359.982 324.670,360.502 324.400,361.010 324.400 C 362.350 324.400,363.200 323.995,363.200 323.357 C 363.200 323.051,363.492 322.800,363.848 322.800 C 364.757 322.800,367.968 320.705,367.985 320.100 C 367.993 319.825,368.287 319.600,368.637 319.600 C 368.988 319.600,369.369 319.240,369.484 318.800 C 369.599 318.360,369.897 317.993,370.147 317.985 C 370.717 317.967,372.800 314.719,372.800 313.848 C 372.800 313.492,373.051 313.200,373.357 313.200 C 373.995 313.200,374.400 312.350,374.400 311.010 C 374.400 310.502,374.670 309.982,375.000 309.855 C 375.900 309.510,375.900 290.490,375.000 290.145 C 374.670 290.018,374.400 289.498,374.400 288.990 C 374.400 287.650,373.995 286.800,373.357 286.800 C 373.051 286.800,372.800 286.440,372.800 286.000 C 372.800 285.560,372.440 284.840,372.000 284.400 C 371.560 283.960,371.200 283.430,371.200 283.223 C 371.200 283.015,370.873 282.610,370.474 282.323 C 370.074 282.035,369.630 281.485,369.486 281.100 C 369.343 280.715,368.949 280.400,368.613 280.400 C 368.276 280.400,368.000 280.130,368.000 279.800 C 368.000 279.470,367.683 279.200,367.296 279.200 C 366.909 279.200,366.368 278.840,366.093 278.400 C 365.774 277.890,365.160 277.600,364.397 277.600 C 363.467 277.600,363.200 277.422,363.200 276.800 C 363.200 276.137,362.933 276.000,361.647 276.000 C 360.430 276.000,360.048 275.827,359.884 275.200 C 359.553 273.934,40.447 273.934,40.116 275.200 " stroke="none" fill="#ffffff" fill-rule="evenodd"></path><path id="path1" d="M40.116 75.200 C 39.952 75.827,39.570 76.000,38.353 76.000 C 37.067 76.000,36.800 76.137,36.800 76.800 C 36.800 77.420,36.533 77.600,35.614 77.600 C 34.838 77.600,34.280 77.876,34.000 78.400 C 33.765 78.840,33.375 79.200,33.133 79.200 C 32.562 79.200,29.200 82.562,29.200 83.133 C 29.200 83.375,28.840 83.765,28.400 84.000 C 27.876 84.280,27.600 84.838,27.600 85.614 C 27.600 86.533,27.420 86.800,26.800 86.800 C 26.137 86.800,26.000 87.067,26.000 88.353 C 26.000 89.570,25.827 89.952,25.200 90.116 C 24.428 90.318,24.400 90.662,24.400 100.000 C 24.400 109.338,24.428 109.682,25.200 109.884 C 25.827 110.048,26.000 110.430,26.000 111.647 C 26.000 112.933,26.137 113.200,26.800 113.200 C 27.422 113.200,27.600 113.467,27.600 114.397 C 27.600 115.160,27.890 115.774,28.400 116.093 C 28.840 116.368,29.200 116.909,29.200 117.296 C 29.200 117.683,29.470 118.000,29.800 118.000 C 30.130 118.000,30.400 118.276,30.400 118.613 C 30.400 118.949,30.715 119.343,31.100 119.486 C 31.485 119.630,32.035 120.074,32.323 120.474 C 32.610 120.873,33.015 121.200,33.223 121.200 C 33.430 121.200,33.960 121.560,34.400 122.000 C 34.840 122.440,35.560 122.800,36.000 122.800 C 36.440 122.800,36.800 123.051,36.800 123.357 C 36.800 123.995,37.650 124.400,38.990 124.400 C 39.498 124.400,40.018 124.670,40.145 125.000 C 40.495 125.914,359.505 125.914,359.855 125.000 C 359.982 124.670,360.502 124.400,361.010 124.400 C 362.350 124.400,363.200 123.995,363.200 123.357 C 363.200 123.051,363.492 122.800,363.848 122.800 C 364.757 122.800,367.968 120.705,367.985 120.100 C 367.993 119.825,368.287 119.600,368.637 119.600 C 368.988 119.600,369.369 119.240,369.484 118.800 C 369.599 118.360,369.897 117.993,370.147 117.985 C 370.717 117.967,372.800 114.719,372.800 113.848 C 372.800 113.492,373.051 113.200,373.357 113.200 C 373.995 113.200,374.400 112.350,374.400 111.010 C 374.400 110.502,374.670 109.982,375.000 109.855 C 375.900 109.510,375.900 90.490,375.000 90.145 C 374.670 90.018,374.400 89.498,374.400 88.990 C 374.400 87.650,373.995 86.800,373.357 86.800 C 373.051 86.800,372.800 86.440,372.800 86.000 C 372.800 85.560,372.440 84.840,372.000 84.400 C 371.560 83.960,371.200 83.430,371.200 83.223 C 371.200 83.015,370.873 82.610,370.474 82.323 C 370.074 82.035,369.630 81.485,369.486 81.100 C 369.343 80.715,368.949 80.400,368.613 80.400 C 368.276 80.400,368.000 80.130,368.000 79.800 C 368.000 79.470,367.683 79.200,367.296 79.200 C 366.909 79.200,366.368 78.840,366.093 78.400 C 365.774 77.890,365.160 77.600,364.397 77.600 C 363.467 77.600,363.200 77.422,363.200 76.800 C 363.200 76.137,362.933 76.000,361.647 76.000 C 360.430 76.000,360.048 75.827,359.884 75.200 C 359.553 73.934,40.447 73.934,40.116 75.200 M40.116 175.200 C 39.952 175.827,39.570 176.000,38.353 176.000 C 37.067 176.000,36.800 176.137,36.800 176.800 C 36.800 177.420,36.533 177.600,35.614 177.600 C 34.838 177.600,34.280 177.876,34.000 178.400 C 33.765 178.840,33.375 179.200,33.133 179.200 C 32.562 179.200,29.200 182.562,29.200 183.133 C 29.200 183.375,28.840 183.765,28.400 184.000 C 27.876 184.280,27.600 184.838,27.600 185.614 C 27.600 186.533,27.420 186.800,26.800 186.800 C 26.137 186.800,26.000 187.067,26.000 188.353 C 26.000 189.570,25.827 189.952,25.200 190.116 C 24.428 190.318,24.400 190.662,24.400 200.000 C 24.400 209.338,24.428 209.682,25.200 209.884 C 25.827 210.048,26.000 210.430,26.000 211.647 C 26.000 212.933,26.137 213.200,26.800 213.200 C 27.422 213.200,27.600 213.467,27.600 214.397 C 27.600 215.160,27.890 215.774,28.400 216.093 C 28.840 216.368,29.200 216.909,29.200 217.296 C 29.200 217.683,29.470 218.000,29.800 218.000 C 30.130 218.000,30.400 218.276,30.400 218.613 C 30.400 218.949,30.715 219.343,31.100 219.486 C 31.485 219.630,32.035 220.074,32.323 220.474 C 32.610 220.873,33.015 221.200,33.223 221.200 C 33.430 221.200,33.960 221.560,34.400 222.000 C 34.840 222.440,35.560 222.800,36.000 222.800 C 36.440 222.800,36.800 223.051,36.800 223.357 C 36.800 223.995,37.650 224.400,38.990 224.400 C 39.498 224.400,40.018 224.670,40.145 225.000 C 40.495 225.914,359.505 225.914,359.855 225.000 C 359.982 224.670,360.502 224.400,361.010 224.400 C 362.350 224.400,363.200 223.995,363.200 223.357 C 363.200 223.051,363.492 222.800,363.848 222.800 C 364.757 222.800,367.968 220.705,367.985 220.100 C 367.993 219.825,368.287 219.600,368.637 219.600 C 368.988 219.600,369.369 219.240,369.484 218.800 C 369.599 218.360,369.897 217.993,370.147 217.985 C 370.717 217.967,372.800 214.719,372.800 213.848 C 372.800 213.492,373.051 213.200,373.357 213.200 C 373.995 213.200,374.400 212.350,374.400 211.010 C 374.400 210.502,374.670 209.982,375.000 209.855 C 375.900 209.510,375.900 190.490,375.000 190.145 C 374.670 190.018,374.400 189.498,374.400 188.990 C 374.400 187.650,373.995 186.800,373.357 186.800 C 373.051 186.800,372.800 186.440,372.800 186.000 C 372.800 185.560,372.440 184.840,372.000 184.400 C 371.560 183.960,371.200 183.430,371.200 183.223 C 371.200 183.015,370.873 182.610,370.474 182.323 C 370.074 182.035,369.630 181.485,369.486 181.100 C 369.343 180.715,368.949 180.400,368.613 180.400 C 368.276 180.400,368.000 180.130,368.000 179.800 C 368.000 179.470,367.683 179.200,367.296 179.200 C 366.909 179.200,366.368 178.840,366.093 178.400 C 365.774 177.890,365.160 177.600,364.397 177.600 C 363.467 177.600,363.200 177.422,363.200 176.800 C 363.200 176.137,362.933 176.000,361.647 176.000 C 360.430 176.000,360.048 175.827,359.884 175.200 C 359.553 173.934,40.447 173.934,40.116 175.200 M40.116 275.200 C 39.952 275.827,39.570 276.000,38.353 276.000 C 37.067 276.000,36.800 276.137,36.800 276.800 C 36.800 277.420,36.533 277.600,35.614 277.600 C 34.838 277.600,34.280 277.876,34.000 278.400 C 33.765 278.840,33.375 279.200,33.133 279.200 C 32.562 279.200,29.200 282.562,29.200 283.133 C 29.200 283.375,28.840 283.765,28.400 284.000 C 27.876 284.280,27.600 284.838,27.600 285.614 C 27.600 286.533,27.420 286.800,26.800 286.800 C 26.137 286.800,26.000 287.067,26.000 288.353 C 26.000 289.570,25.827 289.952,25.200 290.116 C 24.428 290.318,24.400 290.662,24.400 300.000 C 24.400 309.338,24.428 309.682,25.200 309.884 C 25.827 310.048,26.000 310.430,26.000 311.647 C 26.000 312.933,26.137 313.200,26.800 313.200 C 27.422 313.200,27.600 313.467,27.600 314.397 C 27.600 315.160,27.890 315.774,28.400 316.093 C 28.840 316.368,29.200 316.909,29.200 317.296 C 29.200 317.683,29.470 318.000,29.800 318.000 C 30.130 318.000,30.400 318.276,30.400 318.613 C 30.400 318.949,30.715 319.343,31.100 319.486 C 31.485 319.630,32.035 320.074,32.323 320.474 C 32.610 320.873,33.015 321.200,33.223 321.200 C 33.430 321.200,33.960 321.560,34.400 322.000 C 34.840 322.440,35.560 322.800,36.000 322.800 C 36.440 322.800,36.800 323.051,36.800 323.357 C 36.800 323.995,37.650 324.400,38.990 324.400 C 39.498 324.400,40.018 324.670,40.145 325.000 C 40.495 325.914,359.505 325.914,359.855 325.000 C 359.982 324.670,360.502 324.400,361.010 324.400 C 362.350 324.400,363.200 323.995,363.200 323.357 C 363.200 323.051,363.492 322.800,363.848 322.800 C 364.757 322.800,367.968 320.705,367.985 320.100 C 367.993 319.825,368.287 319.600,368.637 319.600 C 368.988 319.600,369.369 319.240,369.484 318.800 C 369.599 318.360,369.897 317.993,370.147 317.985 C 370.717 317.967,372.800 314.719,372.800 313.848 C 372.800 313.492,373.051 313.200,373.357 313.200 C 373.995 313.200,374.400 312.350,374.400 311.010 C 374.400 310.502,374.670 309.982,375.000 309.855 C 375.900 309.510,375.900 290.490,375.000 290.145 C 374.670 290.018,374.400 289.498,374.400 288.990 C 374.400 287.650,373.995 286.800,373.357 286.800 C 373.051 286.800,372.800 286.440,372.800 286.000 C 372.800 285.560,372.440 284.840,372.000 284.400 C 371.560 283.960,371.200 283.430,371.200 283.223 C 371.200 283.015,370.873 282.610,370.474 282.323 C 370.074 282.035,369.630 281.485,369.486 281.100 C 369.343 280.715,368.949 280.400,368.613 280.400 C 368.276 280.400,368.000 280.130,368.000 279.800 C 368.000 279.470,367.683 279.200,367.296 279.200 C 366.909 279.200,366.368 278.840,366.093 278.400 C 365.774 277.890,365.160 277.600,364.397 277.600 C 363.467 277.600,363.200 277.422,363.200 276.800 C 363.200 276.137,362.933 276.000,361.647 276.000 C 360.430 276.000,360.048 275.827,359.884 275.200 C 359.553 273.934,40.447 273.934,40.116 275.200 " stroke="none" fill="#ffffff" fill-rule="evenodd"></path></g></svg>