<?xml version="1.0" encoding="iso-8859-1"?>
<!-- Generator: Adobe Illustrator 19.0.0, SVG Export Plug-In . SVG Version: 6.00 Build 0)  -->
<svg version="1.1" id="Layer_1" xmlns="http://www.w3.org/2000/svg" xmlns:xlink="http://www.w3.org/1999/xlink" x="0px" y="0px"
	 viewBox="0 0 512 512" style="enable-background:new 0 0 512 512;" xml:space="preserve">
<polygon style="fill:#E2E2E2;" points="338.856,0 445.88,107.024 445.88,512 59.24,512 59.24,0 "/>
<polygon style="fill:#999999;" points="445.88,107.024 338.84,107.024 338.84,0 "/>
<polygon style="fill:#333333;" points="407.528,422.896 22.04,422.896 22.04,293.008 489.96,293.008 "/>
<polygon style="fill:#999999;" points="59.24,460.08 59.24,422.896 22.04,422.896 "/>
<g>
	<path style="fill:#FFFFFF;" d="M145.352,320.8v51.536c0,9.584-1.584,15.936-4.752,19.072s-9.632,4.704-19.36,4.704
		c-10.352,0-17.072-1.52-20.16-4.528c-3.072-3.024-4.624-9.664-4.624-19.856l0.176-5.52h13.504c0.224,2.768,0.336,4.848,0.336,6.224
		c0,1.312,0.064,2.912,0.176,4.768c0.224,4.512,3.808,6.784,10.768,6.784c4.16,0,6.832-0.816,8.016-2.432
		c1.184-1.616,1.776-5.264,1.776-10.96V320.8H145.352z"/>
	<path style="fill:#FFFFFF;" d="M203.656,381.136h-32.208l-4.656,14.336H151.8l24.832-74.656h21.28l25.2,74.656h-14.704
		L203.656,381.136z M200.376,370.688l-12.912-38.88l-12.688,38.88H200.376z"/>
	<path style="fill:#FFFFFF;" d="M277.368,320.8h14.992l-24.064,74.656h-21.76l-23.84-74.656h14.72l14,42.288
		c1.312,4.048,3.264,10.832,5.84,20.336h0.384l1.424-5.088c1.744-6.336,3.232-11.408,4.48-15.184L277.368,320.8z"/>
	<path style="fill:#FFFFFF;" d="M343.704,381.136h-32.208l-4.656,14.336h-14.992l24.832-74.656h21.28l25.2,74.656h-14.704
		L343.704,381.136z M340.424,370.688l-12.912-38.88l-12.688,38.88H340.424z"/>
</g>
<g>
</g>
<g>
</g>
<g>
</g>
<g>
</g>
<g>
</g>
<g>
</g>
<g>
</g>
<g>
</g>
<g>
</g>
<g>
</g>
<g>
</g>
<g>
</g>
<g>
</g>
<g>
</g>
<g>
</g>
</svg>
